<?xml version="1.0" standalone="no"?>
<!DOCTYPE svg PUBLIC "-//W3C//DTD SVG 20010904//EN"
 "http://www.w3.org/TR/2001/REC-SVG-20010904/DTD/svg10.dtd">
<svg version="1.0" xmlns="http://www.w3.org/2000/svg"
 width="500.000000pt" height="500.000000pt" viewBox="0 0 500.000000 500.000000"
 preserveAspectRatio="xMidYMid meet">

<g transform="translate(0.000000,500.000000) scale(0.100000,-0.100000)"
fill="#000000" stroke="none">
<path d="M2245 4846 c-21 -31 -5 -66 28 -66 46 0 66 59 28 80 -29 15 -39 13
-56 -14z m53 -19 c4 -21 -27 -35 -38 -17 -12 19 0 42 19 38 9 -2 17 -11 19
-21z"/>
<path d="M2920 4769 c-25 -11 -56 -31 -70 -43 -14 -13 -41 -26 -60 -30 -65
-11 -101 -51 -181 -202 -95 -180 -108 -199 -123 -176 -2 4 0 28 6 53 16 68 6
92 -49 120 l-48 24 -5 63 c-4 51 -10 68 -29 83 -30 24 -82 24 -112 0 -18 -14
-29 -17 -47 -10 -24 9 -83 -9 -96 -30 -4 -6 -18 -11 -31 -11 -35 0 -68 -47
-61 -85 12 -56 47 -79 131 -86 53 -4 84 -12 103 -26 27 -20 111 -148 112 -170
0 -6 -32 -33 -71 -59 -39 -26 -81 -61 -94 -78 -13 -17 -26 -28 -28 -26 -3 3
-11 28 -19 55 l-14 50 -51 3 -51 3 -26 65 c-14 35 -26 71 -26 79 0 8 -9 19
-19 25 -22 11 -66 131 -63 170 4 43 -19 120 -38 130 -31 16 -83 11 -130 -12
-45 -23 -45 -23 -44 -75 1 -32 9 -64 22 -85 11 -18 29 -74 40 -125 l19 -92
-33 -11 c-57 -19 -81 -79 -53 -132 8 -14 8 -23 0 -31 -15 -15 -14 -48 6 -123
l17 -63 -23 -25 c-13 -14 -27 -23 -31 -21 -4 2 -10 38 -13 80 -9 126 -74 206
-195 241 -74 22 -216 15 -297 -14 -72 -26 -184 -101 -218 -145 -62 -82 -89
-177 -70 -247 8 -28 6 -41 -9 -65 -10 -16 -18 -39 -18 -49 0 -11 -12 -32 -26
-47 -20 -20 -27 -39 -28 -71 -2 -62 -9 -70 -64 -63 -45 6 -49 4 -94 -38 -53
-48 -60 -76 -33 -127 19 -37 43 -50 92 -50 21 -1 49 -7 63 -15 30 -17 113 -19
142 -4 18 9 24 8 35 -7 20 -27 16 -35 -13 -23 -15 5 -36 6 -48 2 -11 -4 -41
-8 -66 -8 -150 -3 -148 -3 -165 -35 -8 -16 -26 -32 -39 -36 -36 -9 -59 -39
-53 -69 3 -21 0 -28 -19 -35 -30 -12 -74 -78 -74 -112 0 -33 17 -47 171 -139
65 -39 122 -76 128 -82 5 -7 13 -30 17 -52 l7 -40 -56 51 c-71 65 -129 94
-198 97 l-54 2 -6 -69 c-10 -118 20 -216 95 -305 20 -24 36 -47 36 -52 0 -4
-11 -24 -24 -43 -44 -65 -55 -167 -33 -319 1 -13 -15 -25 -64 -46 -37 -15 -83
-40 -102 -55 -66 -50 -83 -145 -44 -238 14 -33 51 -61 294 -222 153 -101 393
-262 533 -357 140 -95 377 -254 525 -354 149 -100 324 -219 390 -265 486 -339
501 -347 685 -337 58 3 123 12 145 20 39 14 779 377 1285 630 223 111 248 126
275 165 28 41 30 50 30 132 0 82 -2 91 -30 131 -31 43 -147 120 -271 179 -33
16 -67 36 -74 45 -12 15 -10 15 16 8 16 -4 65 -7 109 -7 66 0 91 5 143 29 73
33 105 66 129 136 12 35 27 55 46 65 27 14 31 23 27 57 -1 10 16 38 38 61 43
47 65 84 76 129 4 18 18 33 42 45 31 14 35 20 30 44 -4 22 3 41 34 84 49 70
68 123 49 135 -7 4 -43 11 -79 15 -36 3 -68 8 -72 10 -3 3 2 35 13 72 10 37
19 93 19 124 0 57 -28 148 -55 178 -9 11 -12 34 -8 81 4 53 2 72 -15 105 l-20
39 71 97 c40 53 87 114 105 136 l33 41 -23 20 c-12 12 -25 21 -29 21 -4 0 -38
-26 -75 -57 -38 -32 -64 -51 -59 -43 15 26 77 113 112 159 l34 45 -31 30 -30
31 -95 -95 -94 -94 -24 22 -24 22 -74 -48 c-86 -56 -108 -69 -94 -55 6 6 45
34 88 62 67 45 76 55 71 75 -3 13 -1 27 5 30 16 10 14 36 -3 42 -8 3 -27 -3
-43 -13 -15 -11 -42 -29 -60 -41 -18 -12 -35 -22 -38 -22 -3 0 -5 18 -5 39 l0
39 58 5 c108 9 139 21 190 73 27 27 52 57 55 67 9 23 -11 65 -35 73 -10 3 -26
17 -35 30 -21 33 -69 57 -98 50 -15 -4 -29 2 -46 20 -36 39 -72 54 -129 54
-56 0 -81 -10 -121 -47 -23 -21 -30 -22 -55 -13 -16 6 -44 9 -62 5 -31 -6 -33
-5 -22 15 6 11 27 65 47 118 75 203 39 338 -95 358 -26 3 -53 11 -60 17 -7 5
-27 7 -46 4 -31 -5 -34 -3 -51 36 -10 22 -42 65 -70 95 -43 44 -58 53 -81 50
-39 -4 -58 -43 -43 -87 9 -26 16 -31 44 -31 27 0 37 -6 54 -34 12 -18 21 -42
21 -54 0 -20 0 -20 -37 0 -38 19 -113 21 -155 3 -26 -11 -24 31 2 47 11 7 20
23 20 35 0 17 -8 24 -37 32 -60 16 -249 48 -353 61 -52 6 -105 13 -116 16 -36
7 -49 -20 -32 -64 20 -49 23 -128 5 -156 -8 -11 -17 -37 -21 -57 l-7 -37 -59
36 c-33 19 -60 39 -60 44 0 4 21 50 46 101 67 133 171 369 189 429 21 70 19
126 -5 166 -43 71 -131 91 -220 51z m133 -8 c37 -14 57 -39 57 -71 0 -27 -38
-140 -50 -150 -10 -8 -41 -90 -34 -90 4 0 2 -6 -3 -12 -6 -7 -14 -31 -17 -52
-6 -31 -10 -36 -18 -25 -7 11 -9 9 -5 -8 3 -14 -4 -32 -19 -50 -13 -15 -24
-31 -24 -36 0 -7 -62 -136 -80 -167 -5 -8 -29 -59 -53 -112 -44 -95 -101 -188
-115 -188 -4 0 -17 15 -29 34 l-22 34 37 16 c33 14 34 15 7 9 -49 -10 -64 -6
-101 26 -19 17 -52 40 -74 51 -22 11 -40 22 -40 25 0 2 53 21 118 41 126 39
210 72 219 88 3 5 2 7 -3 4 -5 -3 -70 -22 -144 -43 -74 -21 -152 -46 -172 -56
-41 -21 -65 -23 -87 -10 -11 7 4 41 69 162 46 85 103 192 128 239 140 268 197
310 300 217 32 -30 28 -42 -20 -57 -74 -21 -236 -113 -254 -142 -5 -7 4 -3 19
9 41 32 215 105 263 111 42 4 43 4 49 -31 16 -86 -49 -151 -205 -202 -76 -25
-155 -61 -198 -90 -47 -32 -37 -32 19 -1 24 14 81 34 126 45 197 50 283 118
283 222 0 77 -46 160 -99 181 l-26 10 33 28 c52 43 117 59 165 41z m-709 -114
c12 -9 19 -28 20 -58 2 -62 25 -109 53 -109 28 0 63 -33 63 -58 0 -10 -8 -40
-17 -67 l-16 -49 -17 39 c-10 22 -27 49 -39 59 -11 11 -21 25 -21 33 0 8 -4
11 -10 8 -21 -13 -49 -13 -61 1 -6 8 -16 14 -21 14 -6 0 3 -15 19 -34 15 -18
32 -31 37 -28 5 3 6 0 2 -6 -4 -7 11 -38 33 -70 44 -62 48 -72 29 -72 -7 0
-25 24 -41 53 -35 68 -81 124 -119 143 -16 8 -58 16 -93 18 -75 2 -105 22
-105 70 0 45 13 60 45 52 21 -5 31 -2 46 19 22 27 48 32 81 14 17 -9 24 -8 37
9 26 33 66 41 95 19z m-500 -19 c-1 -10 2 -15 7 -12 5 3 9 -2 9 -10 0 -8 -5
-18 -10 -21 -6 -4 -8 -10 -5 -15 8 -13 -114 -55 -126 -43 -4 5 -10 24 -14 44
-6 34 -5 36 32 51 77 33 109 35 107 6z m-24 -112 c-52 -19 -96 -29 -87 -19 9
9 83 31 107 31 8 0 -1 -5 -20 -12z m64 -52 c6 -18 0 -24 -41 -39 -27 -10 -51
-20 -55 -24 -4 -3 4 -46 17 -96 31 -112 31 -138 3 -167 -13 -13 -17 -16 -9 -6
16 21 12 55 -23 207 -14 63 -26 119 -26 126 0 6 26 18 58 26 60 16 63 15 76
-27z m-57 -126 c-3 -8 -6 -5 -6 6 -1 11 2 17 5 13 3 -3 4 -12 1 -19z m156 -86
c13 -45 20 -79 16 -76 -5 3 -16 31 -26 62 -18 62 -29 50 -14 -16 10 -47 -2
-57 -17 -14 -7 18 -11 21 -11 9 -1 -10 6 -31 14 -47 15 -28 26 -34 85 -43 15
-3 8 -5 -16 -6 -61 -2 -81 20 -104 113 -11 44 -19 80 -18 81 5 4 63 22 65 21
2 -1 13 -39 26 -84z m-146 36 c-3 -7 -5 -2 -5 12 0 14 2 19 5 13 2 -7 2 -19 0
-25z m-59 -91 c3 -40 0 -48 -23 -63 -33 -21 -58 -10 -63 29 -4 33 13 66 41 77
34 14 42 7 45 -43z m1943 33 c15 -12 38 -35 50 -53 20 -28 17 -27 -22 11 -35
33 -48 39 -57 30 -7 -7 -12 -20 -12 -31 0 -10 -4 -15 -10 -12 -11 7 -14 58 -3
68 11 11 23 8 54 -13z m-1272 -16 c-7 -8 -21 -13 -31 -11 -10 3 -16 1 -13 -4
8 -12 -17 -49 -33 -49 -7 0 -10 -4 -7 -10 3 -5 0 -7 -7 -5 -7 3 -19 14 -26 26
-12 18 -9 22 40 44 64 29 97 33 77 9z m819 -9 c218 -32 293 -47 292 -60 0 -6
-29 -9 -68 -9 l-67 2 40 -13 c39 -12 40 -13 38 -57 -2 -25 -7 -57 -12 -71 -9
-24 -13 -25 -63 -20 -29 3 -62 10 -73 16 -11 5 -49 9 -85 8 -50 -2 -70 2 -79
13 -9 10 -30 16 -57 16 l-44 0 0 44 c0 71 10 107 29 102 9 -2 52 -7 96 -10
l80 -5 -90 18 c-49 11 -90 20 -90 21 0 1 -8 3 -19 5 -10 2 -23 8 -29 14 -16
16 -1 15 201 -14z m-1802 -54 c133 -59 178 -173 117 -298 -61 -123 -247 -220
-409 -211 -32 2 -59 8 -61 13 -2 6 15 9 43 6 115 -9 264 47 348 132 130 130
90 292 -83 341 -106 30 -204 15 -328 -48 -117 -59 -183 -148 -183 -248 0 -22
4 -48 10 -58 7 -14 5 -19 -10 -23 -24 -6 -34 19 -33 83 1 49 27 117 66 168 47
63 164 131 272 159 71 18 191 10 251 -16z m854 -7 c0 -9 -11 -14 -31 -14 -34
0 -31 -16 7 -30 37 -14 29 -30 -15 -30 -43 0 -71 8 -71 20 0 12 92 80 101 74
5 -3 9 -12 9 -20z m-909 -29 c24 -8 64 -32 88 -53 38 -33 44 -43 48 -87 11
-121 -104 -240 -265 -274 -108 -23 -169 -12 -272 49 -30 18 -57 32 -60 31 -3
0 -5 3 -5 8 0 5 -3 13 -7 17 -14 13 -8 78 11 120 11 23 35 60 55 81 82 91 292
147 407 108z m350 -19 c-10 -12 -8 -15 11 -19 14 -3 8 -5 -16 -6 -43 -1 -41 5
-20 -101 10 -54 -11 -25 -30 39 -9 30 -16 56 -16 58 0 5 64 43 74 43 5 0 3 -6
-3 -14z m444 -36 c3 -5 -1 -10 -10 -10 -9 0 -13 5 -10 10 3 6 8 10 10 10 2 0
7 -4 10 -10z m1500 -13 c22 -17 12 -37 -20 -37 -36 0 -82 -45 -103 -103 -15
-38 -25 -53 -42 -55 -19 -3 -20 -1 -11 17 6 11 11 32 10 48 -1 23 -3 20 -13
-16 -6 -25 -17 -46 -24 -49 -15 -5 -15 -1 4 66 20 69 25 75 92 97 28 9 52 19
52 21 0 5 -59 -3 -94 -13 -12 -3 -17 -1 -14 8 9 27 132 38 163 16z m336 -17
c20 -11 54 -68 46 -77 -3 -2 -8 5 -12 16 -11 35 -35 51 -76 51 -22 0 -38 -4
-35 -9 3 -4 -11 -15 -32 -24 -37 -17 -110 -18 -145 -2 -20 8 -77 -12 -77 -27
0 -6 -7 -5 -15 2 -13 11 -20 9 -40 -10 -13 -13 -22 -27 -18 -33 3 -6 1 -7 -5
-3 -8 5 -12 -2 -13 -21 -1 -21 -3 -23 -6 -8 -8 29 26 85 56 91 14 3 38 10 54
16 15 6 46 9 70 6 29 -3 59 2 97 18 60 24 121 30 151 14z m-1639 -42 c117 -44
203 -111 244 -189 8 -17 11 -28 5 -25 -7 5 -11 -2 -11 -18 0 -41 -38 -93 -93
-127 -57 -35 -215 -91 -231 -82 -5 3 -6 1 -3 -4 4 -7 -23 -13 -73 -17 -51 -5
-78 -11 -74 -18 4 -5 -4 -4 -17 2 -17 10 -24 10 -27 1 -12 -36 -331 10 -437
65 -65 33 -115 78 -115 104 0 86 142 226 292 287 108 43 170 53 328 49 125 -3
154 -7 212 -28z m1632 9 c14 -11 16 -18 9 -32 -9 -16 -11 -16 -27 6 -27 39
-17 52 18 26z m-876 -24 c-2 -21 -14 -34 -43 -50 -22 -12 -43 -22 -47 -22 -5
-1 -8 22 -8 49 l0 50 51 0 c49 0 50 -1 47 -27z m-261 -8 c0 -8 -4 -15 -9 -15
-10 0 -11 14 -1 23 9 10 10 9 10 -8z m443 -27 c12 -45 14 -56 24 -100 8 -34
-4 -36 -63 -7 -24 11 -68 24 -99 29 -59 10 -82 24 -66 39 11 12 164 79 181 80
7 1 17 -18 23 -41z m63 -30 c-3 -35 -7 -64 -7 -65 -1 -2 -9 27 -18 62 l-15 65
22 0 c22 0 23 -3 18 -62z m373 36 c-3 -9 -6 -20 -6 -25 0 -14 -28 -11 -33 4
-7 20 4 37 25 37 14 0 18 -5 14 -16z m84 1 c19 -23 8 -50 -20 -50 -16 0 -26 6
-28 18 -4 18 14 47 28 47 4 0 13 -7 20 -15z m-984 -142 c0 -1 -13 1 -28 4 -31
6 -34 19 -16 58 l12 26 17 -43 c9 -24 16 -44 15 -45z m200 21 c-35 -24 -71
-86 -82 -142 -6 -28 -10 -32 -33 -29 -21 3 -27 10 -32 39 -5 34 -2 40 69 112
71 72 76 75 94 59 17 -15 17 -17 -16 -39z m144 11 c0 -2 -14 -12 -31 -21 -23
-11 -29 -12 -23 -2 9 17 6 13 -50 -50 -25 -29 -46 -47 -46 -40 0 10 -2 10 -9
0 -6 -10 -10 -7 -13 12 -6 30 27 66 82 90 33 14 90 21 90 11z m322 -26 l56
-11 12 -80 c11 -67 11 -82 -1 -89 -31 -20 -53 -5 -67 44 -9 31 -19 47 -30 47
-12 0 -13 -3 -4 -12 7 -7 12 -22 12 -34 0 -17 -4 -21 -20 -17 -11 3 -20 9 -20
14 0 5 -6 9 -13 9 -7 0 -18 15 -25 33 -7 18 -21 43 -32 55 l-20 21 27 15 c34
18 54 19 125 5z m-213 -37 c37 -27 71 -93 77 -149 7 -71 -5 -83 -55 -50 l-40
26 -35 -57 c-37 -59 -39 -58 -36 21 l1 47 -62 0 c-47 0 -65 -4 -75 -17 -12
-16 -13 -14 -14 18 0 75 42 146 105 175 38 18 100 11 134 -14z m-476 9 c27
-10 39 -33 31 -56 -7 -16 -44 -21 -44 -5 0 6 -18 7 -44 4 -58 -8 -66 8 -19 40
43 29 43 29 76 17z m-1290 -18 c-3 -10 -21 -35 -40 -56 -36 -40 -38 -49 -23
-76 6 -13 5 -24 -5 -37 -8 -11 -15 -32 -15 -47 0 -15 -7 -39 -16 -52 -11 -17
-14 -36 -10 -56 6 -31 -13 -81 -36 -95 -7 -4 -10 -4 -6 0 7 9 -7 36 -47 91
-40 55 -77 84 -142 111 -85 34 -94 73 -18 74 99 2 272 70 329 129 34 36 38 37
29 14z m-568 -43 c60 -29 93 -70 172 -210 103 -184 97 -167 60 -164 -18 1 -38
2 -44 3 -7 0 -15 13 -19 29 -11 46 -32 70 -79 91 l-45 20 6 44 c5 33 2 53 -11
75 -23 38 -101 76 -144 70 -35 -5 -41 10 -13 34 37 32 63 34 117 8z m1725 -34
c0 -2 -7 -9 -15 -16 -13 -11 -14 -10 -9 4 5 14 24 23 24 12z m-1170 -20 c0
-17 -14 -29 -23 -20 -8 8 3 34 14 34 5 0 9 -6 9 -14z m-635 -26 c14 -5 24 -14
21 -19 -3 -4 4 -17 17 -27 l22 -19 -19 23 c-11 12 -14 22 -8 22 20 0 27 -24
27 -92 0 -66 0 -67 -17 -45 -10 12 -18 27 -18 32 0 6 -21 34 -46 63 -56 64
-49 88 21 62z m2002 -26 l28 -25 -32 6 c-17 4 -41 1 -53 -5 -16 -9 -24 -8 -37
6 -16 15 -18 15 -39 -10 -16 -18 -33 -26 -55 -26 -30 0 -31 -1 -25 -34 6 -29
3 -37 -15 -46 -17 -10 -23 -9 -30 1 -4 8 -3 16 2 20 6 3 10 9 10 13 -5 37 35
91 84 112 16 7 53 13 82 14 42 0 57 -5 80 -26z m841 -11 c2 -25 -3 -39 -25
-60 l-27 -28 -8 40 c-14 79 -12 87 25 83 28 -3 32 -7 35 -35z m-102 -121 l-21
-24 -6 24 c-6 21 -7 20 -9 -7 -1 -16 -4 -39 -7 -50 -3 -11 -6 -30 -7 -42 0
-13 -4 -23 -8 -23 -3 0 -8 -8 -10 -17 -3 -16 -6 -15 -26 5 -18 18 -21 26 -12
37 8 10 8 18 0 32 -16 25 9 114 37 128 11 6 18 15 16 21 -2 6 11 24 29 39 l33
28 6 -64 c6 -57 4 -67 -15 -87z m-2097 88 c5 0 17 -7 25 -16 19 -19 22 -68 4
-61 -7 2 -12 16 -11 31 2 25 1 25 -19 12 -40 -28 -64 9 -36 54 13 20 13 20 20
0 4 -11 12 -20 17 -20z m2812 20 c25 -13 45 -33 53 -53 8 -18 19 -43 24 -57
10 -24 11 -23 11 12 1 20 6 40 12 43 21 14 68 -17 86 -56 13 -31 19 -36 30
-27 20 16 35 -3 31 -38 -2 -20 -12 -33 -30 -42 -16 -7 -28 -19 -28 -27 0 -20
-44 -47 -64 -39 -9 3 -28 -2 -42 -11 -37 -24 -104 -15 -148 19 -20 14 -49 29
-66 32 -16 4 -30 9 -30 11 0 2 14 25 31 49 17 25 29 47 27 49 -1 1 -27 10 -57
19 -61 18 -157 21 -195 6 -30 -11 -32 -4 -10 29 27 38 70 51 121 36 40 -12 43
-11 57 9 19 29 72 55 114 56 18 0 51 -9 73 -20z m-3496 -32 c20 -24 45 -59 56
-78 11 -19 43 -65 72 -102 59 -76 93 -135 83 -145 -9 -10 -67 -13 -61 -3 3 4
-2 14 -11 21 -24 20 -74 96 -74 112 0 9 -20 37 -45 64 -25 26 -45 52 -45 57 0
5 -2 7 -5 4 -5 -5 110 -219 144 -267 21 -29 29 -67 12 -56 -17 10 -191 322
-197 353 -8 40 2 82 20 82 8 0 31 -19 51 -42z m2667 36 l37 -7 -19 -25 c-11
-13 -20 -28 -20 -32 0 -4 -7 -24 -15 -45 -16 -36 -16 -37 -41 -20 -24 16 -27
15 -47 -2 -20 -18 -20 -17 -13 2 5 11 15 40 23 65 25 73 28 75 95 64z m-322
-23 c0 -10 -3 -32 -6 -48 -6 -29 -7 -30 -42 -22 -21 5 -40 9 -44 9 -4 0 -13
-18 -19 -40 -7 -22 -14 -38 -16 -36 -2 2 6 38 18 80 l22 76 44 0 c35 0 43 -3
43 -19z m144 -33 c22 -13 42 -23 44 -24 1 0 -15 -39 -37 -85 -22 -46 -40 -78
-40 -71 -1 9 -8 11 -21 7 -11 -4 -20 -2 -20 4 0 6 -9 11 -20 11 -11 0 -23 7
-26 15 -5 13 63 165 74 165 2 0 23 -10 46 -22z m-977 6 c-3 -3 -12 -4 -19 -1
-8 3 -5 6 6 6 11 1 17 -2 13 -5z m1463 -37 c0 -40 -3 -45 -35 -60 -20 -9 -37
-17 -39 -17 -2 0 -13 15 -24 34 -18 30 -19 36 -6 54 13 19 34 26 87 31 14 1
17 -7 17 -42z m-2594 -8 c10 -16 -21 -9 -46 11 l-25 20 33 -11 c17 -6 35 -15
38 -20z m418 15 c9 -3 14 -9 12 -13 -2 -3 6 -7 17 -8 33 -3 109 -10 135 -11
12 -1 22 -9 22 -17 0 -18 -70 -21 -87 -4 -7 7 -21 5 -47 -8 -46 -21 -70 -10
-74 36 -3 33 -2 34 22 25z m-142 -61 c16 -20 -20 -29 -39 -10 -15 14 -14 18 3
44 l19 28 3 -25 c2 -14 8 -31 14 -37z m-679 -95 l36 -68 -29 -15 c-39 -20 -68
-19 -115 5 -22 11 -48 17 -61 14 -36 -9 -65 5 -79 40 -19 44 -10 68 35 105 43
34 57 37 85 18 16 -12 21 -11 38 6 22 22 18 26 90 -105z m2370 103 c4 -4 4
-21 1 -38 -4 -22 -11 -29 -23 -27 -10 3 -25 -11 -43 -41 -26 -42 -58 -60 -58
-32 0 6 7 45 17 85 l17 74 41 -7 c22 -3 43 -9 48 -14z m519 -32 l27 -50 -28
-63 c-31 -67 -53 -106 -61 -106 -3 0 -4 21 -2 46 3 35 0 48 -14 58 -12 10 -18
29 -20 65 -1 46 2 54 28 76 16 14 33 25 37 25 4 0 19 -23 33 -51z m382 43 c3
-5 -13 -18 -34 -30 l-40 -21 0 24 c0 13 6 26 13 28 20 9 55 8 61 -1z m-3051
-36 c22 -9 36 -20 32 -26 -4 -6 -16 -3 -32 10 -14 11 -30 16 -37 12 -7 -4 -2
-8 12 -10 30 -5 55 -43 44 -71 -7 -20 -10 -19 -43 21 -39 47 -58 104 -30 89 9
-5 33 -16 54 -25z m1357 16 c0 -24 -28 -62 -46 -62 -12 0 -11 8 6 40 21 42 40
52 40 22z m1775 2 c15 -4 22 -11 18 -20 -4 -11 -9 -11 -31 0 -15 7 -33 11 -39
9 -7 -3 -13 -1 -13 5 0 15 13 23 28 17 8 -3 24 -8 37 -11z m-2891 -14 c-10 -4
-28 -4 -39 -2 -18 5 -18 6 5 12 32 9 62 -1 34 -10z m696 4 c53 -7 62 -17 31
-34 -43 -22 -78 -9 -106 39 -6 11 -4 13 8 8 9 -3 39 -9 67 -13z m2020 -3 c-15
-29 -41 -52 -51 -46 -15 10 20 65 42 65 16 0 18 -3 9 -19z m-1696 0 c28 -6 29
-7 12 -23 -22 -23 -28 -22 -54 1 -37 31 -25 37 42 22z m600 -7 c7 -18 0 -34
-16 -34 -11 0 -37 29 -38 43 0 14 48 7 54 -9z m573 -21 l21 -18 -44 -50 -44
-49 -20 22 c-12 12 -27 22 -35 22 -26 0 -16 23 27 67 43 44 47 45 95 6z m388
-3 c5 -24 -1 -39 -34 -86 l-41 -57 0 44 c0 31 -3 40 -10 29 -16 -26 -21 -4 -9
43 11 45 20 53 66 56 16 1 23 -6 28 -29z m290 12 c-3 -3 -11 0 -18 7 -9 10 -8
11 6 5 10 -3 15 -9 12 -12z m-2868 -8 c-3 -3 -12 -4 -19 -1 -8 3 -5 6 6 6 11
1 17 -2 13 -5z m261 -26 c11 -18 30 -69 42 -113 23 -85 46 -119 87 -130 14 -3
23 -8 20 -11 -8 -9 -99 34 -126 59 -43 40 -81 169 -61 208 14 25 15 25 38 -13z
m612 17 c54 0 80 -8 80 -24 0 -12 -44 -61 -55 -61 -6 0 -35 23 -65 51 -30 28
-46 47 -35 43 11 -5 45 -8 75 -9z m2003 -16 c-23 -24 -123 -39 -123 -20 0 6 1
11 3 11 1 0 20 7 42 15 22 8 53 14 70 15 l29 0 -21 -21z m-2839 -25 c4 -11 2
-12 -14 -1 -11 6 -20 15 -20 19 0 12 28 -3 34 -18z m520 -51 l68 -6 -23 -19
c-141 -110 -210 -132 -242 -78 -19 32 -57 135 -57 155 0 9 28 4 93 -16 50 -16
123 -32 161 -36z m916 -4 c474 -186 587 -232 604 -249 11 -11 18 -21 15 -23
-2 -2 -152 -50 -334 -106 -181 -56 -339 -108 -349 -115 -19 -12 -20 -27 -18
-441 2 -463 1 -475 -50 -475 -32 0 -846 407 -857 429 -6 10 -11 185 -12 405
-2 372 -1 388 18 414 17 24 43 33 204 74 101 25 270 71 374 102 120 35 201 53
220 50 17 -2 100 -32 185 -65z m446 55 c20 -5 21 -11 17 -72 -3 -37 -10 -71
-16 -77 -6 -7 -8 -3 -4 13 3 12 1 22 -3 22 -5 0 -10 12 -12 28 -2 21 -9 28
-30 30 -27 3 -28 4 -13 33 16 30 24 33 61 23z m-1901 -96 c60 -34 112 -63 114
-65 3 -2 -6 -14 -19 -27 l-22 -25 -32 33 c-22 24 -44 36 -76 41 -35 5 -122 47
-148 70 -2 2 2 13 8 25 16 30 38 23 175 -52z m2043 46 l37 -15 -27 -20 c-25
-19 -28 -27 -28 -83 0 -35 -3 -65 -6 -69 -10 -10 -34 5 -34 22 0 14 -2 14 -10
1 -14 -23 -30 31 -30 105 0 79 21 92 98 59z m187 -4 c11 -17 -8 -70 -24 -70
-9 0 -22 -5 -29 -12 -9 -9 -12 -5 -12 20 0 18 -4 32 -10 32 -14 0 -12 16 4 33
15 14 62 12 71 -3z m542 4 c-3 -3 -22 -6 -42 -6 -20 0 -39 3 -42 6 -4 3 15 6
42 6 27 0 46 -3 42 -6z m167 -15 c5 -4 6 -20 2 -34 -7 -26 -8 -26 -31 -11 -37
25 -42 19 -10 -14 25 -26 26 -30 10 -36 -10 -4 -30 0 -47 10 -40 24 -46 14
-12 -18 l28 -26 -20 -27 c-28 -37 -45 -39 -82 -8 -44 36 -52 31 -12 -10 28
-29 31 -37 20 -50 -17 -20 -27 -19 -48 6 -9 11 -28 25 -42 30 -18 8 -21 12
-11 18 7 5 12 11 12 15 -3 17 2 25 39 66 39 43 47 66 13 39 -16 -12 -17 -12
-6 1 14 19 79 57 69 41 -11 -17 5 -13 39 9 29 19 68 19 89 -1z m-2870 2 c4 -5
-3 -7 -14 -4 -23 6 -26 13 -6 13 8 0 17 -4 20 -9z m116 -9 c0 -12 -67 -42 -93
-42 -21 1 -22 1 -2 12 16 9 80 35 93 38 1 0 2 -4 2 -8z m595 -7 c6 -2 -18 -4
-52 -4 -34 -1 -64 3 -67 7 -5 8 96 5 119 -3z m1541 -14 c-2 -9 -7 -37 -11 -63
-3 -26 -11 -51 -17 -54 -8 -5 -9 5 -5 34 6 35 4 42 -13 47 -14 4 -20 15 -20
34 0 25 3 27 35 23 27 -3 35 -8 31 -21z m-452 -32 c4 -28 5 -53 3 -55 -6 -6
-67 20 -67 29 0 4 -4 5 -10 2 -6 -4 -7 1 -3 12 3 10 2 15 -2 11 -5 -5 -13 2
-20 15 -13 26 0 35 56 36 36 1 36 1 43 -50z m276 -6 c0 -21 -3 -62 -7 -91 -6
-54 -6 -54 -36 -48 -17 3 -33 9 -36 12 -6 6 -20 137 -15 143 3 4 62 18 82 20
7 1 12 -13 12 -36z m1268 15 c12 -12 -5 -34 -115 -150 -30 -32 -52 -62 -48
-68 3 -5 0 -8 -7 -5 -7 2 -25 -6 -40 -20 -29 -25 -38 -42 -15 -29 6 4 4 -2 -7
-14 -10 -12 -22 -20 -26 -19 -5 1 -16 -7 -25 -18 -9 -11 -13 -13 -9 -5 7 13 5
13 -9 1 -9 -7 -14 -17 -11 -22 3 -5 2 -9 -3 -8 -4 2 -20 -4 -36 -11 -46 -23
-43 -2 8 53 102 108 320 327 325 327 3 0 11 -5 18 -12z m-3487 -41 c15 3 30 0
33 -6 4 -6 18 -11 30 -11 30 0 54 -26 38 -42 -14 -14 -178 37 -186 58 -12 31
-5 35 27 16 20 -13 42 -18 58 -15z m3205 18 c-11 -8 -16 -15 -12 -15 11 0 -13
-21 -64 -55 -75 -50 -73 -50 -60 -26 13 24 126 111 144 111 6 0 2 -7 -8 -15z
m-856 -14 c0 -3 -7 -15 -15 -25 -8 -11 -15 -30 -15 -41 0 -12 -9 -30 -21 -41
-17 -16 -22 -16 -29 -4 -7 10 -10 11 -10 3 0 -7 -7 -13 -15 -13 -12 0 -14 9
-9 43 8 54 50 97 88 90 14 -3 26 -8 26 -12z m319 -33 c28 -20 27 -24 -35 -120
-93 -146 -118 -180 -122 -170 -5 17 -36 -16 -62 -65 -12 -23 -27 -47 -35 -53
-7 -6 -18 -23 -25 -39 -11 -28 -12 -28 -48 -15 -20 7 -36 18 -34 25 2 7 21 42
43 79 21 36 39 69 39 73 0 7 113 200 167 285 l34 53 28 -18 c15 -10 38 -26 50
-35z m-3145 23 c8 -12 -39 -31 -75 -31 -17 0 -28 -4 -25 -8 3 -5 -5 -8 -17 -8
-17 1 -23 -6 -25 -27 -3 -21 -12 -32 -35 -42 -34 -14 -57 -10 -57 10 0 14 22
25 51 25 12 0 26 13 36 36 16 33 20 36 53 31 22 -3 44 1 55 9 22 16 32 17 39
5z m364 -15 c37 -24 358 -133 522 -178 109 -29 113 -42 37 -124 -57 -62 -134
-101 -173 -88 -16 5 -17 4 -4 -6 12 -9 10 -11 -12 -7 -15 2 -25 1 -23 -3 5 -8
-93 -30 -133 -30 l-25 0 5 124 c6 121 5 125 -18 147 -12 12 -26 34 -29 50 -11
47 -26 53 -143 50 -59 -1 -123 -4 -142 -8 l-35 -6 44 37 c24 20 49 35 55 32
34 -15 148 -48 151 -44 3 3 -29 15 -70 28 -72 23 -83 29 -68 43 11 11 22 8 61
-17z m-249 -20 c13 -28 5 -66 -13 -58 -3 1 -20 -5 -36 -13 -20 -11 -51 -15
-97 -13 l-68 3 -3 -40 c-2 -22 -8 -44 -13 -49 -5 -6 -9 -23 -9 -40 0 -34 -25
-66 -51 -66 -10 0 -25 12 -33 28 -42 76 -41 72 -25 100 10 17 23 27 38 26 15
0 35 15 62 47 30 36 48 49 77 54 21 3 56 17 78 30 49 31 75 28 93 -9z m606 14
c-3 -5 -13 -10 -21 -10 -8 0 -20 -13 -25 -30 -6 -16 -17 -30 -25 -30 -29 0 -8
45 31 68 25 14 48 15 40 2z m-565 -4 c0 -11 -19 -15 -25 -6 -3 5 1 10 9 10 9
0 16 -2 16 -4z m3542 -99 c-12 -13 -19 -27 -15 -31 5 -4 1 -6 -7 -4 -8 2 -14
-2 -15 -9 0 -13 -13 -28 -23 -28 -4 0 -27 -20 -51 -45 l-43 -45 28 40 c62 87
129 162 138 154 6 -5 1 -18 -12 -32z m-3255 17 c24 -5 33 -14 42 -44 6 -20 11
-40 11 -43 0 -9 -58 -24 -140 -38 -78 -14 -363 -19 -375 -7 -10 9 22 66 44 78
63 33 341 69 418 54z m3553 -10 c0 -8 -4 -12 -10 -9 -5 3 -10 2 -10 -4 0 -10
-83 -96 -157 -164 -16 -15 -43 -30 -59 -33 l-29 -5 30 30 c51 51 220 200 228
200 4 1 7 -6 7 -15z m-717 -50 c43 -48 45 -54 16 -54 -13 0 -18 4 -13 12 5 8
2 9 -10 5 -10 -4 -50 -14 -88 -22 -39 -8 -82 -22 -95 -30 l-24 -16 19 38 c11
21 30 47 42 58 21 19 99 56 111 52 3 -1 22 -21 42 -43z m235 -7 l27 -48 -24
-20 c-25 -20 -46 -26 -36 -9 9 15 -58 12 -80 -4 -16 -12 -22 -12 -43 2 -16 10
-20 18 -13 25 15 15 14 47 -1 47 -9 0 -8 4 2 14 28 27 75 46 108 44 28 -3 38
-10 60 -51z m-3529 34 c16 -11 6 -16 -36 -20 -25 -2 -33 2 -33 13 0 18 45 22
69 7z m2779 -27 c-11 -11 -21 -12 -41 -5 -17 7 -28 7 -32 1 -4 -6 -1 -10 5
-10 6 0 4 -13 -6 -32 -12 -23 -17 -60 -18 -120 -1 -49 -4 -88 -8 -88 -5 0 -8
63 -8 140 l0 140 31 0 c17 0 28 -4 24 -10 -3 -5 1 -10 10 -10 9 0 13 5 10 10
-3 6 -1 10 4 10 6 0 11 -6 11 -12 0 -7 6 -4 12 7 8 14 13 16 16 6 2 -7 -2 -19
-10 -27z m92 7 c0 -5 2 -24 5 -42 5 -29 4 -30 -4 -12 -8 19 -16 22 -41 17 -23
-5 -30 -3 -30 9 0 9 8 21 18 26 21 13 52 14 52 2z m-1885 -11 c3 -6 -1 -7 -9
-4 -18 7 -21 14 -7 14 6 0 13 -4 16 -10z m-1249 -35 c-9 -9 -14 -20 -11 -25 3
-5 -1 -11 -7 -14 -22 -9 43 -57 145 -109 83 -42 95 -51 99 -77 2 -16 1 -27 -4
-24 -4 3 -8 11 -8 18 0 12 -43 37 -131 75 -69 29 -129 69 -129 86 0 19 50 99
57 91 3 -3 -2 -12 -11 -21z m4064 21 c0 -2 -8 -10 -17 -17 -16 -13 -17 -12 -4
4 13 16 21 21 21 13z m-1000 -26 c12 -8 12 -12 0 -37 -25 -48 -49 -53 -51 -10
-1 18 -3 16 -10 -8 -5 -16 -6 -54 -3 -84 5 -42 4 -52 -6 -46 -13 8 -10 160 4
183 9 14 45 16 66 2z m-2256 -11 c-3 -6 -22 -17 -41 -25 -18 -8 -31 -18 -29
-23 6 -10 -33 -17 -192 -36 -126 -15 -299 -5 -314 17 -14 24 -9 41 10 32 9 -4
77 -10 151 -12 159 -4 278 12 419 57 2 1 0 -4 -4 -10z m2084 -86 l-3 -98 -105
-33 c-501 -160 -509 -163 -540 -193 l-30 -31 0 117 c0 115 9 155 34 155 14 0
178 49 431 128 88 28 173 51 188 51 l28 1 -3 -97z m710 33 c28 -15 102 -85
102 -97 0 -3 -16 -9 -35 -12 -35 -6 -110 -45 -102 -53 2 -2 29 7 61 22 69 31
193 36 245 9 61 -31 94 -133 55 -166 -18 -15 -137 -169 -131 -169 2 0 32 34
66 75 90 108 126 123 204 84 85 -44 117 -100 117 -209 0 -92 -50 -240 -81
-240 -5 0 -9 23 -9 50 0 36 -4 50 -14 50 -19 0 -64 -37 -70 -58 -3 -10 -15
-18 -26 -19 -13 -1 -18 2 -13 10 5 9 3 9 -8 1 -8 -6 -28 -14 -45 -17 -30 -6
-136 -71 -142 -88 -2 -5 -9 -6 -14 -3 -6 4 -8 3 -5 -3 3 -5 -14 -25 -38 -43
-24 -18 -42 -37 -39 -41 2 -4 -1 -11 -7 -15 -8 -4 -9 -3 -5 5 10 15 -50 11
-84 -6 -14 -7 -35 -13 -46 -13 -12 0 -25 -8 -29 -17 -13 -32 -23 14 -23 107 0
58 -7 108 -22 155 -41 136 -103 320 -116 346 -9 18 -42 42 -99 70 -47 24 -85
48 -85 53 0 16 68 102 118 148 51 48 114 85 167 99 41 11 118 3 153 -15z m166
-12 c25 -10 19 -21 -13 -26 -31 -5 -61 6 -61 22 0 11 50 13 74 4z m-3604 -29
c0 -18 -5 -25 -20 -25 -24 0 -25 8 -3 32 21 23 23 23 23 -7z m175 -18 l70 2
-45 -13 c-84 -26 -90 -28 -90 -37 0 -5 23 0 51 11 74 30 333 47 409 29 30 -8
55 -18 55 -23 0 -15 -108 -55 -177 -64 l-63 -10 61 -1 c73 -1 94 -17 75 -57
-6 -14 -11 -36 -11 -51 0 -18 -4 -24 -15 -19 -8 3 -15 1 -15 -4 0 -5 -16 -24
-36 -43 -28 -26 -33 -36 -23 -42 8 -5 11 -5 7 0 -9 9 23 35 35 28 4 -2 -3 -13
-16 -23 -17 -14 -24 -30 -25 -59 -3 -61 -5 -65 -40 -78 -68 -25 -76 15 -14 79
33 35 35 39 22 63 -7 13 -22 28 -34 31 -29 9 -77 -49 -100 -121 -13 -42 -21
-55 -33 -51 -8 3 -25 6 -38 6 -20 0 -24 9 -44 103 -27 128 -61 326 -61 352 1
17 2 18 13 5 9 -11 30 -14 82 -13z m3512 -32 c60 -18 98 -46 119 -88 13 -27 9
-24 -28 17 -42 47 -48 50 -128 67 -60 12 -74 17 -49 18 19 1 58 -6 86 -14z
m194 -10 c27 -15 28 -17 14 -32 -13 -13 -14 -18 -3 -24 9 -6 4 -9 -15 -9 -19
0 -26 4 -21 12 4 7 3 8 -5 4 -7 -5 -26 6 -47 28 l-35 36 41 0 c23 0 54 -7 71
-15z m-2806 -222 c-6 -69 -8 -72 -37 -82 -43 -15 -47 -14 -40 11 3 13 1 19 -5
15 -6 -4 -13 17 -17 55 -9 90 -8 118 7 118 6 1 30 16 52 35 l40 34 3 -57 c2
-31 1 -89 -3 -129z m1776 113 c200 -85 274 -123 302 -155 15 -18 27 -40 26
-49 0 -13 -3 -12 -11 5 -19 39 -34 38 -148 -7 -30 -12 -62 -23 -70 -25 -8 -1
-22 -5 -30 -8 -83 -31 -253 -81 -264 -78 -4 1 -39 -8 -77 -20 -68 -22 -69 -22
-70 -58 l-1 -36 -13 32 c-13 28 -62 73 -81 73 -7 0 -102 41 -201 87 -75 35
-101 36 -107 4 -3 -14 -8 -140 -12 -278 -4 -145 -11 -253 -16 -253 -5 0 -8
111 -6 278 3 267 4 278 26 313 26 42 14 37 287 122 292 91 307 96 336 96 14 1
73 -19 130 -43z m-2944 9 c21 -9 45 -23 55 -32 21 -19 24 -56 5 -71 -10 -8
-16 -3 -26 21 -28 70 -30 73 -30 56 -1 -29 -28 -29 -55 0 -14 15 -26 30 -26
34 0 12 39 8 77 -8z m955 -4 c10 -14 18 -17 28 -10 8 5 23 9 33 9 15 0 17 -11
17 -92 0 -112 -5 -123 -54 -114 -33 6 -36 9 -36 43 0 20 -3 34 -6 30 -13 -13
-4 -170 11 -194 9 -13 13 -28 10 -33 -9 -14 -39 -6 -181 50 -11 4 -21 15 -21
24 0 8 5 12 10 9 6 -3 7 20 3 61 -3 36 -4 66 -2 66 2 0 23 -7 46 -15 24 -8 45
-13 47 -11 2 2 -18 12 -46 21 l-51 17 0 49 0 49 50 0 c33 0 50 -4 50 -12 1
-38 55 -66 85 -45 17 13 16 14 -11 12 -60 -4 -83 34 -48 83 19 27 48 28 66 3z
m-1004 -47 c28 -36 45 -70 25 -51 -3 4 -12 2 -19 -4 -10 -9 -15 -7 -20 5 -3 9
-10 16 -15 16 -22 0 9 -34 49 -53 49 -24 66 -47 33 -44 -12 1 -21 5 -21 10 0
4 -4 6 -9 2 -5 -3 -12 -1 -16 5 -3 5 -12 10 -18 10 -7 -1 2 -12 18 -26 20 -17
23 -22 8 -15 -31 16 -35 14 -23 -9 8 -15 21 -20 55 -20 24 0 47 -5 51 -12 5
-8 -4 -10 -34 -6 -35 5 -40 3 -35 -11 3 -9 13 -22 22 -30 14 -12 14 -13 -4 -7
-18 7 -18 5 3 -17 34 -37 27 -55 -9 -21 -43 40 -89 145 -96 220 -6 65 3 123
16 108 4 -5 22 -28 39 -50z m506 -123 c3 -5 -2 -11 -12 -13 -24 -7 -72 -99
-82 -156 -6 -38 -8 -41 -9 -15 -1 43 25 120 56 161 24 33 37 39 47 23z m562
-66 c31 -8 69 -12 83 -9 22 4 23 4 9 -6 -10 -6 -19 -25 -19 -43 -2 -29 -2 -30
-6 -5 -2 14 -11 29 -20 32 -13 5 -15 0 -11 -32 6 -38 -5 -72 -22 -72 -5 0 -26
34 -48 75 -22 41 -36 75 -31 75 4 0 34 -7 65 -15z m2303 -131 c21 -71 40 -141
42 -155 7 -48 -23 -74 -128 -115 -54 -21 -102 -39 -108 -40 -28 -6 -76 -32
-67 -38 5 -3 60 12 120 33 61 21 113 36 116 33 12 -11 6 -93 -6 -97 -7 -2
-114 -40 -238 -84 -123 -43 -228 -77 -232 -75 -5 3 -8 27 -8 54 0 49 0 49 40
61 21 7 37 16 33 22 -3 5 4 6 18 2 18 -6 21 -4 13 5 -9 9 -23 8 -60 -5 -67
-24 -127 -24 -152 -2 -27 25 -50 112 -79 301 -4 28 -3 37 5 32 7 -4 12 -21 12
-37 0 -51 50 -253 68 -273 14 -15 26 -17 73 -12 62 6 402 120 489 163 85 43
87 62 24 266 -23 76 -29 106 -19 95 3 -3 23 -63 44 -134z m-70 93 c22 -56 62
-228 59 -249 -2 -15 -9 -22 -22 -21 -10 0 -46 -9 -80 -22 -65 -24 -302 -104
-375 -126 -24 -7 -52 -22 -63 -33 -16 -17 -18 -18 -18 -3 0 24 33 41 133 71
l88 27 31 64 c31 63 31 65 13 85 -27 30 -1 24 37 -8 52 -45 98 -74 98 -63 0 5
-8 12 -17 15 -10 3 -35 21 -55 40 -34 31 -37 38 -28 62 6 15 8 36 4 47 -4 12
-2 17 4 13 6 -3 13 8 17 26 9 42 30 65 66 73 16 4 31 11 34 16 4 5 20 9 36 9
22 0 32 -6 38 -23z m-975 -3 c19 -7 22 -25 4 -21 -10 1 -14 -28 -16 -115 -3
-153 2 -165 110 -219 74 -37 117 -71 118 -92 0 -4 -8 -3 -18 2 -25 13 -54 -4
-32 -19 9 -5 16 -6 18 0 2 5 9 7 17 4 7 -3 16 0 20 5 3 6 11 8 17 5 5 -3 27
-6 49 -6 l39 1 0 -185 c0 -120 -4 -184 -10 -184 -6 0 -13 7 -16 15 -4 8 -10
12 -15 9 -5 -3 -9 2 -9 11 0 20 -36 69 -42 58 -3 -5 -3 -3 -2 4 6 23 -38 114
-52 109 -8 -3 -18 4 -24 14 -7 14 -7 20 0 20 5 0 10 -8 11 -17 0 -13 2 -14 6
-4 3 8 -2 20 -12 27 -11 8 -15 19 -10 33 4 13 2 21 -5 21 -7 0 -10 8 -7 19 3
13 0 18 -8 15 -24 -9 -10 37 15 51 19 11 21 14 8 15 -10 0 -18 4 -18 8 0 12
-56 42 -65 34 -5 -4 -5 -1 0 7 6 11 2 13 -21 7 -16 -4 -24 -3 -18 1 7 5 -1 19
-21 38 l-32 30 -1 -34 c-1 -18 -4 -36 -7 -39 -3 -3 -5 81 -5 186 0 110 4 192
9 192 5 0 16 -3 25 -6z m-1954 -70 c0 -11 -5 -14 -17 -10 -9 4 -48 4 -85 0
l-69 -7 58 -23 c32 -13 60 -24 63 -24 3 0 -2 -5 -10 -10 -21 -13 49 -41 119
-46 91 -8 122 -14 116 -25 -10 -14 -126 -11 -183 6 -29 9 -67 28 -85 44 -40
34 -68 42 -111 30 -84 -23 -125 -94 -127 -220 -1 -122 41 -220 153 -353 49
-59 2 -29 -56 35 -103 114 -160 309 -126 431 16 56 71 129 113 151 53 27 90
35 175 36 60 1 72 -2 72 -15z m146 -25 c116 -36 219 -107 238 -164 5 -18 4
-18 -13 3 -11 12 -24 22 -30 22 -6 0 -11 4 -11 9 0 10 -25 20 -68 27 -15 2
-49 7 -77 12 l-50 8 53 8 c28 4 52 11 52 15 0 5 -37 19 -82 32 -45 14 -83 30
-86 37 -5 16 -6 16 74 -9z m375 -74 c51 -25 86 -45 78 -45 -17 0 -179 77 -179
85 0 9 6 6 101 -40z m2186 3 c-3 -8 -6 -5 -6 6 -1 11 2 17 5 13 3 -3 4 -12 1
-19z m-2904 -22 c7 -19 -18 -40 -38 -32 -15 6 -20 28 -8 39 12 12 41 7 46 -7z
m422 -19 c10 -8 15 -19 11 -26 -9 -14 -22 -7 -36 20 -12 22 -2 25 25 6z m3434
-25 c-10 -16 -9 -26 9 -56 21 -35 21 -36 2 -26 -26 14 -36 55 -21 87 7 14 14
23 17 20 3 -3 0 -14 -7 -25z m-3619 -12 c0 -5 -7 -10 -15 -10 -8 0 -15 5 -15
10 0 6 7 10 15 10 8 0 15 -4 15 -10z m2155 0 c3 -5 1 -10 -4 -10 -6 0 -11 5
-11 10 0 6 2 10 4 10 3 0 8 -4 11 -10z m-1485 -19 c5 -11 9 -30 9 -43 -2 -20
-2 -20 -6 -3 -2 13 -22 28 -56 42 l-52 22 47 0 c37 1 50 -3 58 -18z m-115 -7
l48 -17 -36 -19 c-62 -31 -93 -100 -75 -165 12 -46 77 -113 108 -113 19 0 21
-2 9 -16 -24 -29 -93 -57 -140 -57 -74 1 -137 44 -111 76 32 40 54 244 32 301
l-10 26 63 0 c35 0 85 -7 112 -16z m3296 9 l33 -6 -54 -18 c-56 -18 -70 -17
-70 6 0 7 -6 16 -12 18 -19 8 65 8 103 0z m-2881 -13 c11 -6 25 -20 31 -33 12
-21 11 -21 -6 -7 -17 14 -18 13 -10 -5 16 -39 17 -75 4 -92 -9 -11 -10 -14 -2
-9 10 5 11 1 4 -16 -4 -13 -17 -23 -27 -23 -24 0 -64 60 -64 96 0 36 11 64 19
50 8 -12 61 7 61 21 0 13 -53 21 -69 11 -22 -14 -26 -94 -7 -132 45 -86 104
-83 117 6 l6 48 2 -42 c3 -104 -94 -110 -140 -9 -23 50 -23 66 -5 111 12 27
21 35 41 35 15 0 35 -5 45 -10z m1220 -10 c0 -5 -3 -9 -7 -9 -45 7 -52 -1 -56
-58 l-3 -58 -2 68 -2 67 35 0 c19 0 35 -4 35 -10z m720 -5 c0 -6 -38 -22 -97
-41 -64 -20 -52 -1 15 23 58 22 82 27 82 18z m601 -21 c-59 -16 -66 -20 -66
-36 0 -6 -6 -13 -12 -15 -7 -3 -13 1 -13 7 0 13 -49 -18 -105 -69 l-40 -36 40
44 c63 69 160 120 225 120 14 0 0 -7 -29 -15z m-2366 -74 c4 -30 4 -52 0 -48
-3 3 -10 31 -14 62 -4 31 -4 53 0 49 4 -4 10 -33 14 -63z m-517 40 c44 -48 51
-154 13 -202 -17 -20 -21 -21 -50 -8 -36 14 -76 62 -86 100 -12 51 37 130 81
130 13 0 32 -9 42 -20z m3136 -24 c-8 -32 -24 -44 -24 -18 0 14 -7 19 -31 20
-41 1 -51 12 -12 12 17 0 36 7 43 15 18 22 33 4 24 -29z m-2524 8 c0 -2 -9 0
-20 6 -11 6 -20 13 -20 16 0 2 9 0 20 -6 11 -6 20 -13 20 -16z m1515 16 c-3
-5 -14 -10 -23 -10 -15 0 -15 2 -2 10 20 13 33 13 25 0z m870 1 c34 -7 35 -9
10 -9 -16 0 -43 4 -60 8 -42 11 -1 11 50 1z m-2309 -59 c-5 -4 -66 26 -66 33
0 3 16 -3 35 -12 19 -9 33 -18 31 -21z m1344 24 c0 -2 -15 -9 -32 -15 -30 -10
-31 -9 -14 4 18 14 46 20 46 11z m-386 -61 c5 -36 4 -46 -3 -35 -10 13 -16 99
-7 89 2 -2 6 -26 10 -54z m-1567 13 c-3 -7 -5 -2 -5 12 0 14 2 19 5 13 2 -7 2
-19 0 -25z m1257 12 c25 -9 37 -40 16 -40 -21 0 -80 29 -80 39 0 14 31 14 64
1z m-689 -18 c-3 -3 -11 0 -18 7 -9 10 -8 11 6 5 10 -3 15 -9 12 -12z m754
-18 c-15 -18 -22 -13 -13 10 3 9 10 13 16 10 5 -3 4 -12 -3 -20z m1756 -22
c-7 -7 -45 29 -45 41 0 6 11 0 25 -13 14 -13 23 -26 20 -28z m-2446 12 c14
-12 -19 -1 -35 12 -18 14 -18 14 6 3 14 -6 27 -13 29 -15z m548 4 c-3 -8 -6
-5 -6 6 -1 11 2 17 5 13 3 -3 4 -12 1 -19z m-452 -6 c-3 -3 -11 0 -18 7 -9 10
-8 11 6 5 10 -3 15 -9 12 -12z m1947 -24 c25 -25 11 -36 -23 -18 -18 10 -24 9
-31 -3 -9 -16 -55 -18 -89 -3 -10 5 -16 2 -16 -8 0 -8 4 -13 9 -10 4 3 8 0 8
-5 0 -14 -16 -13 -65 4 -22 8 -41 15 -43 15 -1 0 6 -12 15 -27 10 -15 13 -24
6 -20 -6 4 -14 1 -16 -5 -4 -10 -8 -10 -15 1 -5 7 -15 10 -21 7 -6 -4 -20 -1
-32 8 l-21 14 24 15 c42 27 99 40 150 34 37 -5 54 -2 65 8 21 22 70 18 95 -7z
m-1892 -43 c61 -30 110 -57 110 -60 0 -5 -219 102 -229 111 -14 13 23 -3 119
-51z m425 44 c12 -19 -5 -23 -22 -6 -16 16 -16 17 -1 17 9 0 20 -5 23 -11z
m-1167 -50 c-3 -33 -4 -33 -8 8 -3 23 -2 39 3 34 5 -5 7 -24 5 -42z m812 21
c33 -17 60 -33 60 -35 0 -5 -119 52 -129 61 -13 12 16 1 69 -26z m438 -3 c13
3 22 1 22 -6 0 -5 -7 -8 -15 -5 -8 4 -15 1 -15 -5 0 -8 -11 -6 -30 6 -16 9
-30 24 -30 32 0 11 6 9 23 -7 15 -14 30 -19 45 -15z m-2478 -39 c-93 -48 -124
-81 -124 -133 0 -45 33 -80 144 -153 47 -30 148 -96 225 -147 77 -51 212 -139
300 -196 87 -57 234 -153 326 -214 92 -60 240 -157 329 -215 197 -127 466
-303 498 -326 37 -26 17 -29 -25 -3 -21 12 -130 83 -243 157 -113 74 -251 164
-308 201 -56 36 -178 116 -270 176 -92 61 -239 157 -327 214 -480 314 -629
416 -647 445 -28 45 -19 99 24 143 32 33 139 92 168 93 8 0 -23 -19 -70 -42z
m3490 7 c0 -19 -2 -35 -4 -35 -2 0 -11 -3 -19 -6 -11 -4 -16 4 -19 30 -2 20 1
38 7 40 27 11 35 4 35 -29z m-1063 -31 c46 -22 82 -48 101 -72 29 -37 59 -118
47 -130 -10 -10 -27 15 -28 42 -1 14 -5 26 -9 26 -4 0 -10 9 -13 20 -11 35
-67 78 -145 111 -41 18 -79 37 -85 42 -21 19 62 -5 132 -39z m1013 11 c0 -33
-20 -55 -49 -55 -19 0 -13 68 7 79 31 19 42 12 42 -24z m536 7 c-4 -3 -14 2
-24 12 -16 18 -16 18 6 6 13 -6 21 -14 18 -18z m-75 2 c11 -14 9 -15 -16 -12
-16 1 -30 9 -33 16 -6 18 33 15 49 -4z m-2638 -18 c6 -15 -1 -26 -15 -26 -4 0
-8 9 -8 20 0 23 15 27 23 6z m892 -4 c-3 -3 -11 0 -18 7 -9 10 -8 11 6 5 10
-3 15 -9 12 -12z m592 -29 c-3 -10 -5 -2 -5 17 0 19 2 27 5 18 2 -10 2 -26 0
-35z m1073 32 c0 -3 -24 -16 -52 -28 -36 -16 -62 -37 -81 -65 -16 -22 -35 -43
-43 -46 -9 -3 -14 -14 -12 -24 2 -11 -3 -26 -10 -34 -7 -9 -22 -40 -33 -69
-19 -53 -20 -53 -15 -14 9 63 53 166 89 203 41 44 157 100 157 77z m-1522 -20
c-2 -5 -6 -9 -10 -7 -5 1 -7 -1 -6 -5 2 -5 -2 -21 -9 -38 -6 -16 -16 -46 -22
-65 -9 -32 -10 -29 -8 31 3 68 18 102 44 97 8 -2 13 -7 11 -13z m-1083 -35
c-9 -15 -25 -2 -25 21 0 19 1 19 16 5 8 -9 12 -20 9 -26z m2852 24 c3 -8 1
-20 -4 -25 -12 -12 -48 14 -39 29 10 17 36 15 43 -4z m-180 0 c-3 -3 -12 -4
-19 -1 -8 3 -5 6 6 6 11 1 17 -2 13 -5z m58 -14 c13 -5 14 -9 5 -9 -8 0 -24 4
-35 9 -13 5 -14 9 -5 9 8 0 24 -4 35 -9z m-610 -9 c-3 -5 -22 -15 -43 -22 -20
-6 -84 -29 -141 -51 -57 -21 -106 -37 -109 -34 -5 6 8 12 143 61 50 18 101 38
115 43 32 14 43 14 35 3z m-2159 -28 c-10 -10 -19 5 -10 18 6 11 8 11 12 0 2
-7 1 -15 -2 -18z m2339 16 c-14 -22 -223 -109 -244 -101 -17 6 -25 2 129 66
115 48 124 51 115 35z m497 2 c-12 -7 -12 -12 0 -32 7 -13 18 -27 25 -32 25
-16 43 -39 37 -48 -9 -15 -52 24 -59 52 -3 15 -15 36 -26 48 l-20 21 28 0 c19
0 24 -3 15 -9z m-2532 -11 c0 -5 -4 -10 -10 -10 -5 0 -10 5 -10 10 0 6 5 10
10 10 6 0 10 -4 10 -10z m105 0 c-3 -5 -10 -10 -16 -10 -5 0 -9 5 -9 10 0 6 7
10 16 10 8 0 12 -4 9 -10z m2460 0 c3 -5 1 -10 -4 -10 -6 0 -11 5 -11 10 0 6
2 10 4 10 3 0 8 -4 11 -10z m-237 -26 c-8 -9 -24 -14 -34 -11 -17 3 -16 5 6
15 36 16 47 14 28 -4z m-2650 -28 c3 -21 0 -26 -10 -21 -10 6 -10 5 -1 -5 10
-11 20 -11 47 -3 26 8 36 8 39 -1 3 -8 11 -7 27 2 14 9 19 9 15 2 -4 -7 0 -10
11 -8 33 6 27 -27 -8 -40 -44 -16 -31 -24 15 -8 20 7 34 16 30 20 -4 4 -1 11
7 16 10 7 11 10 3 10 -7 0 -13 4 -13 9 0 12 58 7 90 -8 25 -11 25 -11 -3 -6
-19 4 -26 2 -22 -5 4 -6 3 -10 -2 -9 -20 3 -27 -2 -14 -10 10 -6 27 -5 49 5
44 18 129 18 165 -1 15 -8 25 -10 22 -6 -12 20 25 18 41 -2 10 -12 12 -16 4
-9 -30 26 -31 10 -1 -23 34 -39 37 -53 19 -78 -12 -15 -183 -100 -316 -157
-37 -16 -50 -26 -43 -33 8 -8 15 -7 23 1 15 15 32 16 23 2 -9 -15 8 -12 33 6
17 12 26 13 36 5 20 -17 70 7 55 26 -17 20 -34 16 -18 -4 11 -15 11 -16 -1 -5
-8 6 -23 13 -34 13 -21 1 -21 1 -1 6 11 3 26 10 33 15 8 7 12 7 12 -1 0 -6 9
-11 21 -11 11 0 18 -4 14 -10 -3 -5 20 3 52 17 64 29 81 39 44 28 -17 -5 -22
-4 -16 5 6 10 1 12 -19 8 -14 -3 -28 -2 -31 2 -2 4 1 7 8 7 7 0 20 4 30 8 10
4 17 3 17 -5 0 -7 8 -9 20 -5 13 4 20 2 20 -6 0 -7 3 -9 6 -6 4 4 1 14 -7 24
-8 9 -9 14 -4 11 17 -10 55 10 49 26 -7 20 11 29 25 12 9 -11 5 -18 -21 -35
-19 -12 -26 -21 -17 -21 9 0 19 3 23 8 4 4 13 7 19 7 7 0 13 6 13 13 1 6 3 15
4 20 1 4 2 10 1 14 0 4 6 5 14 2 8 -4 15 -10 15 -14 0 -5 16 -4 36 2 20 5 47
7 60 4 12 -3 26 -2 29 4 3 5 14 10 23 10 15 0 15 -2 2 -10 -9 -6 -10 -10 -3
-10 6 0 15 5 18 10 3 6 11 10 16 10 6 0 7 -4 4 -10 -3 -5 -1 -10 4 -10 6 0 11
-4 11 -9 0 -5 -12 -8 -27 -5 -26 4 -26 3 -8 -8 11 -7 23 -13 26 -13 3 0 14 -8
24 -18 10 -10 21 -15 24 -10 10 13 38 11 38 -2 0 -7 -7 -11 -16 -8 -14 4 -14
3 -2 -5 8 -6 22 -7 30 -3 18 10 43 3 36 -9 -3 -4 2 -11 11 -14 12 -5 15 -2 11
13 -3 14 0 17 14 14 27 -8 33 -22 12 -30 -10 -4 -21 -11 -25 -17 -5 -7 -8 -7
-8 2 0 6 -5 12 -12 12 -6 0 -4 -7 5 -18 26 -29 22 -77 -9 -101 -14 -11 -34
-23 -45 -26 -11 -4 -17 -11 -14 -16 3 -5 -1 -6 -9 -3 -8 3 -28 -2 -46 -11 -27
-14 -30 -18 -18 -33 12 -15 11 -16 -5 -3 -16 13 -27 10 -95 -22 -516 -240
-508 -238 -585 -197 -21 11 -43 17 -49 14 -7 -5 -8 -2 -3 6 6 10 4 12 -9 7 -9
-4 -15 -3 -12 2 3 5 -19 25 -50 45 -44 28 -60 34 -74 26 -13 -7 -21 -7 -25 0
-4 6 -3 10 2 9 29 -5 36 2 17 20 -19 18 -40 19 -29 0 10 -16 -2 -10 -16 9 -7
9 -9 14 -5 10 10 -9 35 20 36 40 0 13 26 45 32 41 2 -1 14 2 28 6 24 8 24 8 5
16 -27 10 -43 11 -26 0 8 -5 9 -11 3 -15 -5 -3 -12 1 -15 9 -8 19 43 59 57 45
17 -17 30 -11 15 7 -13 15 -12 15 8 5 27 -15 36 -15 27 -1 -4 7 1 7 16 -1 26
-14 74 -5 64 12 -5 8 -1 9 12 5 18 -7 18 -7 0 8 -23 17 -14 20 15 5 12 -7 19
-7 19 -1 0 6 7 7 17 4 12 -5 14 -3 8 7 -6 9 -4 12 6 8 8 -3 26 0 40 8 24 13
23 13 -10 9 -18 -2 -36 -6 -39 -9 -3 -4 -13 1 -22 9 -18 17 -54 10 -43 -8 4
-7 0 -8 -12 -4 -11 5 -60 -12 -137 -48 -66 -30 -127 -55 -135 -55 -8 0 -11 -4
-8 -10 6 -10 -37 -5 -92 11 -55 17 -150 85 -155 111 -7 35 0 47 25 40 20 -5
20 -4 8 11 -11 14 -11 17 0 17 11 0 11 2 -1 10 -13 9 -13 10 0 10 9 0 34 9 55
20 22 11 46 18 53 15 8 -3 23 2 35 11 22 15 22 15 -4 9 -19 -5 -38 1 -68 19
-23 15 -41 29 -41 33 0 3 3 3 6 0 4 -3 15 -2 26 4 18 10 19 11 2 23 -12 9 -14
15 -6 20 7 4 16 4 22 1 6 -4 7 1 3 11 -5 13 -2 16 9 12 9 -4 27 -1 41 7 26 13
47 4 47 -19 0 -6 -7 -3 -14 7 -11 14 -16 15 -22 6 -4 -7 -2 -15 4 -17 7 -2 10
-8 7 -13 -3 -5 16 2 42 15 66 33 98 42 87 25 -4 -7 7 -3 24 10 18 12 32 27 32
34 0 6 -7 2 -16 -9 -15 -18 -15 -17 -1 7 11 18 12 30 5 37 -6 6 -6 12 3 17 8
6 10 4 4 -5 -6 -9 -2 -10 15 -5 17 6 21 4 14 -6 -21 -34 -7 -50 26 -29 12 8
10 10 -8 10 -21 0 -22 1 -8 16 19 18 22 59 4 48 -7 -4 -8 -3 -4 5 12 19 31 7
34 -23z m66 19 c-7 -17 -20 -20 -28 -6 -7 10 3 21 20 21 8 0 11 -6 8 -15z
m334 3 c-2 -6 -14 -12 -26 -13 -24 -2 -30 10 -9 18 22 10 39 7 35 -5z m-1543
-8 c3 -5 1 -10 -4 -10 -6 0 -11 5 -11 10 0 6 2 10 4 10 3 0 8 -4 11 -10z
m1295 0 c0 -5 -7 -10 -16 -10 -8 0 -12 5 -9 10 3 6 10 10 16 10 5 0 9 -4 9
-10z m-1335 -20 c3 -5 2 -10 -4 -10 -5 0 -13 5 -16 10 -3 6 -2 10 4 10 5 0 13
-4 16 -10z m3003 -25 c4 -31 -18 -55 -50 -55 -26 0 -26 76 0 83 33 9 47 2 50
-28z m-2912 16 c-3 -5 1 -12 10 -15 8 -3 13 -10 10 -15 -9 -13 15 -28 57 -36
37 -7 38 -8 20 -28 -10 -11 -13 -17 -6 -14 14 9 29 -12 17 -22 -5 -3 -8 -4 -7
-2 6 10 -38 32 -50 25 -8 -5 -8 -2 2 9 8 10 9 17 3 17 -6 0 -13 -4 -17 -10 -3
-5 -12 -7 -21 -3 -12 5 -12 7 3 19 17 13 17 13 1 14 -10 0 -18 6 -18 14 0 8
-9 21 -21 30 -20 13 -20 14 -2 19 10 3 19 5 21 6 2 0 1 -3 -2 -8z m1438 -6
c18 -14 16 -15 -21 -12 -32 1 -39 5 -31 15 13 16 28 15 52 -3z m76 -5 c-8 -5
-19 -10 -25 -10 -5 0 -3 5 5 10 8 5 20 10 25 10 6 0 3 -5 -5 -10z m110 0 c0
-5 -2 -10 -4 -10 -3 0 -8 5 -11 10 -3 6 -1 10 4 10 6 0 11 -4 11 -10z m701 -6
c75 -38 92 -191 25 -222 -62 -28 -143 81 -122 164 6 24 47 74 61 74 3 0 20 -7
36 -16z m-741 -4 c0 -5 -4 -10 -9 -10 -6 0 -13 5 -16 10 -3 6 1 10 9 10 9 0
16 -4 16 -10z m1240 -26 c0 -31 -4 -37 -36 -50 -58 -24 -78 -16 -82 33 l-3 42
43 4 c24 2 51 4 61 5 13 2 17 -6 17 -34z m320 4 c-67 -30 -96 -40 -87 -31 10
10 109 52 122 52 6 0 -10 -10 -35 -21z m-1496 -13 c7 -18 -10 -20 -18 -2 -3 6
-3 0 0 -14 6 -27 -10 -49 -19 -26 -6 16 10 57 22 57 5 0 11 -7 15 -15z m1556
-20 c0 -37 -17 -51 -100 -80 l-38 -13 -4 34 c-5 41 -1 45 72 72 72 27 70 28
70 -13z m545 25 c-3 -5 -14 -10 -23 -10 -15 0 -15 2 -2 10 20 13 33 13 25 0z
m-715 -39 c0 -10 -150 -71 -174 -71 -9 0 -40 -9 -71 -21 -48 -18 -59 -19 -90
-8 -44 16 -46 32 -2 24 41 -8 141 15 238 54 79 32 99 36 99 22z m-1262 -28
c-10 -2 -28 -2 -40 0 -13 2 -5 4 17 4 22 1 32 -1 23 -4z m1699 -41 c0 -27 8
-63 17 -80 15 -30 15 -31 -1 -24 -49 20 -103 54 -116 72 -7 11 -17 17 -22 12
-5 -4 -5 -1 -1 6 4 7 11 10 16 7 4 -3 15 7 24 20 9 14 20 24 24 21 5 -3 14 -1
22 5 28 17 36 9 37 -39z m-1807 16 c0 -5 -5 -6 -10 -3 -6 4 -19 1 -28 -7 -15
-11 -15 -11 -5 3 7 9 10 18 7 22 -3 3 3 3 15 0 12 -3 21 -10 21 -15z m250 18
c0 -3 -4 -8 -10 -11 -5 -3 -10 -1 -10 4 0 6 5 11 10 11 6 0 10 -2 10 -4z
m-1718 -29 c-7 -8 -8 -18 -4 -22 4 -5 1 -5 -5 -1 -10 5 -10 11 -1 26 7 11 14
17 17 15 2 -3 -1 -11 -7 -18z m-37 -25 c-3 -3 -11 0 -18 7 -9 10 -8 11 6 5 10
-3 15 -9 12 -12z m540 -23 c-3 -4 0 -9 6 -11 7 -2 5 -9 -5 -17 -14 -12 -16
-12 -10 4 6 14 4 16 -7 10 -12 -8 -12 -6 0 8 12 15 11 17 -5 18 -11 0 -14 3
-6 6 6 2 10 10 6 16 -3 7 1 3 10 -7 8 -10 13 -22 11 -27z m1020 31 c3 -5 -1
-10 -10 -10 -9 0 -13 5 -10 10 3 6 8 10 10 10 2 0 7 -4 10 -10z m890 -7 c23
-11 35 -23 35 -37 0 -13 -3 -16 -8 -10 -4 6 -21 19 -39 28 -62 31 -51 49 12
19z m-2348 -10 c2 -6 -3 -13 -12 -16 -10 -5 -15 0 -15 14 0 21 21 22 27 2z
m3123 -59 c74 -42 169 -94 210 -116 115 -61 235 -137 259 -162 35 -37 37 -77
6 -114 -15 -18 -36 -37 -48 -44 -11 -6 -2 7 21 29 66 62 55 95 -56 167 -74 48
-190 116 -198 116 -5 0 -335 189 -343 196 -21 19 36 -9 149 -72z m-3060 16
c13 -9 13 -10 0 -11 -8 -1 -22 -1 -30 0 -16 2 29 -43 52 -52 7 -2 9 -8 5 -13
-4 -5 -12 -2 -17 6 -6 8 -10 11 -10 6 0 -5 -11 3 -25 18 -35 38 -17 73 25 46z
m1115 -50 c-3 -5 -10 -10 -16 -10 -5 0 -9 5 -9 10 0 6 7 10 16 10 8 0 12 -4 9
-10z m45 -5 c-14 -8 -29 -14 -35 -14 -5 0 1 6 15 14 14 8 30 14 35 14 6 0 -1
-6 -15 -14z m640 -36 c0 -6 -4 -7 -10 -4 -5 3 -10 11 -10 16 0 6 5 7 10 4 6
-3 10 -11 10 -16z m1244 13 c3 -5 -1 -9 -9 -9 -8 0 -12 4 -9 9 3 4 7 8 9 8 2
0 6 -4 9 -8z m-2937 -38 c0 -6 -7 -10 -16 -9 -9 2 -20 4 -26 4 -14 2 13 18 29
18 7 0 13 -6 13 -13z m72 7 c8 -5 9 -11 3 -15 -13 -8 -42 3 -42 15 0 11 21 11
39 0z m2841 -11 c0 -5 -9 -10 -20 -10 -11 0 -20 5 -20 10 0 6 9 10 20 10 11 0
20 -4 20 -10z m110 -2 c0 -5 -9 -8 -19 -8 -11 0 -22 3 -24 8 -3 4 6 7 19 7 13
0 24 -3 24 -7z m-55 -8 c3 -5 2 -10 -4 -10 -5 0 -13 5 -16 10 -3 6 -2 10 4 10
5 0 13 -4 16 -10z m116 -14 c8 4 10 3 5 -4 -4 -7 -18 -10 -34 -6 -22 5 -24 3
-12 -6 13 -10 11 -11 -7 -7 -33 7 -26 -31 9 -49 26 -14 28 -13 28 5 0 15 -5
19 -20 16 -12 -2 -18 0 -15 6 4 5 11 7 16 4 5 -4 9 -1 9 4 0 20 21 11 29 -11
5 -15 4 -26 -3 -30 -8 -5 -7 -8 2 -8 7 0 10 -4 7 -10 -5 -9 1 -12 21 -9 4 0
10 -5 14 -11 4 -7 13 -11 19 -9 8 3 6 12 -7 27 -11 13 -22 19 -24 15 -3 -4 -4
-3 -2 3 1 6 -3 18 -9 25 -7 7 -3 6 9 -4 11 -9 26 -17 33 -17 7 0 10 -4 7 -9
-3 -5 1 -12 10 -15 13 -5 14 -9 4 -21 -13 -15 -4 -39 11 -29 5 3 7 9 5 13 -7
11 11 34 28 37 19 3 22 -12 4 -19 -10 -3 -10 -7 0 -20 8 -9 12 -22 9 -29 -3
-8 -8 -4 -14 11 -15 38 -23 10 -10 -36 9 -36 8 -45 -6 -61 -9 -10 -99 -58
-199 -108 -243 -119 -237 -118 -428 -5 -41 24 -87 55 -102 69 -25 23 -26 25
-11 59 12 30 12 38 1 45 -9 7 -8 8 5 4 19 -6 115 39 133 63 6 8 16 11 22 7 6
-3 42 9 80 29 96 49 147 65 203 65 26 0 51 5 54 10 4 6 14 9 23 6 10 -3 28 3
42 14 22 17 26 18 37 4 7 -9 17 -13 24 -8z m-2283 -4 c2 -7 -1 -12 -8 -12 -6
0 -9 4 -6 9 4 5 1 12 -4 14 -6 3 -5 4 2 3 6 -1 14 -8 16 -14z m2062 8 c0 -5
-5 -10 -11 -10 -5 0 -7 5 -4 10 3 6 8 10 11 10 2 0 4 -4 4 -10z m-40 -20 c0
-11 -36 -24 -70 -26 -42 -3 -46 -5 -25 -14 14 -6 16 -9 4 -9 -8 -1 -24 6 -35
15 -10 8 -13 13 -6 9 6 -3 12 -2 12 4 0 16 51 26 60 11 6 -9 12 -10 26 -1 14
8 15 11 4 11 -13 0 -13 2 0 9 15 10 30 6 30 -9z m-2600 -27 c0 -7 -6 -13 -14
-13 -7 0 -19 -7 -26 -15 -16 -19 -31 -20 -24 -1 4 10 -2 14 -23 13 -28 -2 -45
14 -22 22 7 2 9 -1 5 -8 -10 -16 7 -14 30 4 10 8 27 15 37 15 9 0 17 6 17 13
0 16 20 -13 20 -30z m520 33 c0 -3 -4 -8 -10 -11 -5 -3 -10 -1 -10 4 0 6 5 11
10 11 6 0 10 -2 10 -4z m1159 -17 c-16 -10 -23 -4 -14 10 3 6 11 8 17 5 6 -4
5 -9 -3 -15z m-1794 1 c-11 -5 -27 -9 -35 -9 -9 0 -8 4 5 9 11 5 27 9 35 9 9
0 8 -4 -5 -9z m1556 -27 c8 2 11 2 6 0 -4 -3 -5 -8 -2 -13 2 -4 -7 -7 -21 -7
-16 0 -23 4 -20 12 2 7 -1 19 -7 26 -7 7 -3 6 9 -4 12 -10 27 -16 35 -14z
m119 22 c0 -2 -15 -9 -32 -15 -28 -8 -24 -9 22 -4 69 8 113 6 146 -6 14 -6 31
-7 37 -3 7 3 9 2 4 -2 -4 -5 7 -16 25 -24 66 -32 158 -94 158 -107 0 -13 20
-19 44 -15 5 1 6 -10 4 -24 -3 -14 -1 -25 6 -25 6 0 4 -5 -4 -10 -12 -8 -12
-10 5 -11 17 -1 16 -2 -5 -9 -25 -8 -25 -8 5 -10 17 -1 23 -4 14 -7 -10 -2
-19 -12 -22 -22 -4 -15 2 -17 49 -13 32 3 70 -2 98 -11 27 -9 48 -12 51 -6 4
5 -2 9 -11 9 -10 0 -28 10 -41 22 -17 16 -36 22 -64 22 -21 -1 -39 2 -39 5 0
4 8 7 18 7 9 0 31 3 47 7 19 5 25 4 16 -2 -11 -7 -9 -10 8 -16 11 -3 21 -11
21 -16 0 -15 50 -10 56 5 3 9 12 12 22 8 15 -5 15 -4 3 11 -23 29 0 19 31 -13
15 -16 33 -30 38 -30 6 0 10 -5 10 -11 0 -5 4 -8 9 -4 5 3 12 1 15 -4 8 -13
-47 -21 -62 -9 -7 6 -10 19 -7 29 7 22 -10 33 -32 21 -20 -12 -28 -46 -8 -38
9 3 12 0 9 -9 -3 -8 -13 -11 -22 -8 -13 5 -14 3 -6 -6 6 -7 18 -13 25 -14 8
-2 19 -6 26 -10 7 -4 25 -1 40 6 23 12 30 12 40 2 10 -10 9 -14 -3 -19 -24 -9
-41 -6 -19 4 15 7 16 9 4 9 -9 1 -22 -6 -29 -15 -8 -8 -9 -14 -4 -12 5 1 21
-6 36 -16 15 -10 32 -15 39 -11 7 5 9 1 5 -13 -5 -14 -1 -21 14 -25 11 -3 20
-10 20 -16 0 -6 -7 -8 -15 -5 -11 5 -15 -1 -15 -18 0 -14 -8 -32 -17 -40 -10
-8 -112 -61 -226 -117 -137 -66 -206 -105 -201 -113 4 -6 3 -8 -4 -5 -15 10
-43 -3 -35 -16 4 -6 1 -7 -6 -2 -19 11 -115 -36 -99 -48 9 -6 7 -7 -5 -3 -11
4 -49 -8 -91 -29 -40 -19 -84 -35 -97 -35 l-24 -1 25 -15 c17 -10 18 -13 5 -8
-11 3 -45 12 -76 19 -32 7 -73 22 -92 34 -39 24 -51 27 -41 9 4 -8 3 -10 -2
-5 -5 5 -9 13 -9 18 0 5 -29 28 -64 52 -79 51 -95 89 -59 137 l22 30 -25 26
c-13 14 -19 24 -14 23 6 -2 20 2 33 9 18 10 22 10 22 0 0 -8 5 -6 11 4 5 10
20 23 32 30 20 10 21 10 8 -5 -12 -15 -11 -17 8 -17 11 0 21 5 21 11 0 6 7 8
16 5 8 -3 12 -2 9 4 -3 6 4 10 16 10 17 0 20 3 12 11 -8 8 -18 6 -37 -6 -14
-10 -26 -13 -26 -8 0 17 50 34 69 24 13 -7 18 -6 18 4 0 8 -5 11 -10 8 -6 -4
-7 -1 -3 6 5 7 14 10 22 7 8 -3 17 1 20 8 3 8 13 17 21 20 13 6 14 4 3 -9 -12
-14 -10 -15 12 -11 17 3 28 -2 36 -15 7 -10 8 -19 3 -19 -6 0 -13 5 -16 10 -3
6 -11 10 -18 10 -6 0 -1 -7 12 -16 21 -15 24 -15 39 1 10 10 11 14 4 10 -9 -4
-15 0 -19 14 -3 12 -13 21 -22 21 -12 0 -10 5 9 20 14 10 27 17 29 14 2 -2 11
2 20 9 14 11 14 10 2 -5 -7 -10 -17 -15 -22 -12 -5 3 -9 0 -9 -5 0 -6 5 -11
11 -11 5 0 7 -4 4 -10 -3 -6 1 -7 9 -4 9 3 13 11 9 17 -4 6 0 8 11 4 11 -5 15
-3 10 5 -5 8 -2 9 9 5 18 -7 33 8 17 18 -5 3 -10 12 -10 18 0 8 2 9 8 1 4 -6
18 -17 32 -24 23 -12 24 -12 11 4 -8 9 -11 20 -7 23 4 4 12 1 17 -7 8 -11 12
-12 16 -2 2 6 10 10 16 6 7 -3 3 2 -8 12 -20 16 -20 16 2 11 12 -2 31 2 43 10
12 8 33 19 48 23 25 8 25 8 4 9 -13 1 -20 5 -17 11 4 6 16 10 28 8 13 -2 21 2
20 9 -3 13 35 12 56 -2 10 -5 12 -4 7 3 -4 7 -5 12 -2 12 2 0 13 3 23 7 16 6
17 5 4 -11 -13 -15 -13 -19 0 -27 12 -7 11 -9 -2 -9 -9 0 -22 -7 -30 -16 -11
-13 -7 -13 24 2 31 15 34 19 20 29 -11 8 -12 14 -5 19 6 4 9 13 5 22 -4 10 -9
12 -18 4 -17 -14 -57 -22 -50 -9 4 5 13 9 21 9 8 0 26 7 40 16 21 14 24 14 18
1 -3 -8 0 -18 5 -22 6 -3 9 -11 6 -16 -3 -5 1 -6 10 -3 14 6 14 8 1 18 -17 12
-16 30 2 62 11 20 7 34 -9 34 -4 0 -10 -11 -13 -24 -7 -28 -76 -66 -321 -176
-88 -40 -216 -101 -285 -135 -240 -120 -283 -122 -445 -18 -96 62 -121 87
-120 120 1 23 11 33 48 54 26 14 44 29 40 33 -5 4 -1 7 7 6 32 -5 42 0 36 16
-5 13 -4 14 7 6 10 -9 42 2 138 48 68 32 130 64 137 70 6 6 12 7 12 3 0 -4 5
-2 12 5 7 7 18 12 25 12 7 0 40 12 73 27 64 28 68 47 9 45 -17 0 -28 2 -24 6
7 8 13 9 47 11 21 1 21 1 2 16 -18 15 -18 15 0 8 15 -5 17 -3 11 8 -5 8 -5 11
1 6 5 -5 9 -14 9 -20 0 -7 8 -11 18 -11 9 1 17 -4 17 -12 0 -8 -6 -11 -17 -7
-13 4 -15 3 -7 -6 7 -8 26 -4 72 19 34 16 68 30 75 30 6 0 4 5 -5 11 -27 15
-10 39 28 39 19 0 34 -2 34 -5z m-1055 -23 c-3 -3 -11 0 -18 7 -9 10 -8 11 6
5 10 -3 15 -9 12 -12z m-440 -24 c5 4 5 1 1 -6 -4 -7 -11 -10 -16 -7 -5 3 -11
1 -15 -5 -3 -5 -2 -10 4 -10 5 0 17 -3 27 -7 10 -4 15 -2 11 3 -3 6 4 11 15
11 20 2 20 1 -2 -23 -23 -24 -70 -33 -70 -14 0 6 -5 10 -11 10 -5 0 -7 -4 -4
-10 3 -5 1 -10 -4 -10 -17 0 -13 18 7 29 14 9 14 10 2 11 -9 0 -22 -6 -29 -12
-10 -11 -11 -10 -6 4 4 9 20 20 36 23 16 4 29 11 29 16 0 6 -4 7 -10 4 -5 -3
-10 2 -10 12 1 16 3 16 19 -4 10 -12 22 -19 26 -15z m1319 -7 c-2 -3 -12 3
-22 13 -16 17 -16 18 5 5 12 -7 20 -15 17 -18z m1076 -7 c0 -2 -7 0 -17 3 -10
4 -14 2 -10 -4 4 -6 0 -14 -9 -17 -8 -3 -12 -2 -9 4 3 6 1 10 -6 10 -8 0 -9 3
0 13 6 8 7 17 3 22 -4 4 5 0 21 -10 15 -9 27 -19 27 -21z m-657 19 c-7 -2 -19
-2 -25 0 -7 3 -2 5 12 5 14 0 19 -2 13 -5z m45 -18 c-13 -6 -27 -10 -31 -7
-13 7 26 30 41 25 9 -4 6 -9 -10 -18z m512 16 c0 -5 -7 -12 -16 -15 -14 -5
-15 -4 -4 9 14 17 20 19 20 6z m-2095 -60 c-5 -16 -2 -18 15 -14 11 3 20 0 20
-6 0 -14 -33 -14 -47 0 -9 9 -8 15 0 25 16 18 19 17 12 -5z m1612 4 c0 -8 -4
-12 -9 -9 -5 3 -6 10 -3 15 9 13 12 11 12 -6z m51 1 c-10 -7 -14 -17 -10 -21
4 -5 1 -5 -7 0 -12 7 -11 10 4 22 24 17 36 17 13 -1z m410 -1 c-2 -6 -11 -9
-20 -8 -10 2 -18 -4 -18 -12 0 -8 -2 -15 -4 -15 -2 0 -13 -3 -23 -7 -10 -4 -4
7 16 26 30 30 57 38 49 16z m-2178 -11 c0 -9 -5 -14 -12 -12 -18 6 -21 28 -4
28 9 0 16 -7 16 -16z m1139 -10 c-19 -7 -42 -13 -53 -13 -15 -1 -16 2 -6 14 7
8 16 12 21 9 5 -3 16 -1 26 4 9 6 24 7 32 4 10 -4 4 -10 -20 -18z m1772 9 c-6
-12 -5 -21 7 -31 15 -11 14 -12 -6 -2 -18 9 -20 14 -12 30 6 11 13 20 16 20 3
0 1 -8 -5 -17z m-3021 -23 c8 -5 12 -11 10 -14 -3 -2 -14 2 -24 10 -22 15 -10
19 14 4z m117 -2 c-8 -5 -6 -8 8 -9 19 -1 19 -2 1 -6 -15 -4 -16 -7 -5 -14 12
-7 12 -9 -1 -9 -13 0 -13 -1 0 -10 12 -8 12 -10 1 -10 -11 0 -11 -3 -1 -15 11
-13 10 -14 -4 -9 -10 4 -15 13 -12 20 7 17 -10 28 -18 12 -5 -11 -7 -11 -12 0
-3 6 -10 10 -15 6 -5 -3 -8 0 -7 8 2 7 -4 12 -12 10 -11 -3 -11 0 3 15 10 12
30 19 52 19 20 0 30 -3 22 -8z m1853 -9 c0 -5 -7 -9 -15 -9 -9 0 -12 6 -9 15
6 15 24 11 24 -6z m1016 -8 c-3 -5 1 -25 9 -45 14 -32 14 -35 -2 -29 -12 5
-14 3 -8 -8 4 -8 5 -11 1 -7 -12 10 -15 98 -4 98 5 0 7 -4 4 -9z m-806 -45
c-4 -12 -9 -19 -12 -16 -3 3 -13 -2 -24 -10 -14 -10 -13 -7 4 11 22 25 30 45
14 35 -5 -3 -9 1 -9 8 0 11 4 12 18 3 12 -7 15 -17 9 -31z m-1199 5 c-9 -6
-10 -11 -2 -15 7 -5 5 -13 -7 -26 -20 -22 -65 -16 -70 9 -2 11 2 11 21 -2 20
-13 24 -13 24 -1 0 8 -5 14 -10 14 -6 0 -7 3 -4 6 4 4 14 1 24 -7 15 -12 16
-12 11 3 -7 17 -1 28 16 28 6 0 5 -4 -3 -9z m-766 -11 c-3 -5 -13 -10 -21 -10
-8 0 -14 5 -14 10 0 6 9 10 21 10 11 0 17 -4 14 -10z m2745 -10 c-6 -11 -13
-20 -16 -20 -2 0 0 9 6 20 6 11 13 20 16 20 2 0 0 -9 -6 -20z m-2720 6 c0 -2
-8 -10 -17 -17 -16 -13 -17 -12 -4 4 13 16 21 21 21 13z m2985 -52 c-8 -44
-69 -107 -119 -124 -21 -7 -33 -16 -30 -22 5 -7 2 -8 -6 -3 -8 5 -18 2 -25 -8
-7 -9 -21 -18 -31 -20 -18 -3 -117 -52 -277 -136 -42 -22 -80 -40 -83 -39 -3
1 -46 -18 -95 -42 -61 -30 -85 -47 -76 -53 7 -5 2 -6 -15 -3 -20 5 -48 -4
-100 -30 -40 -20 -75 -40 -78 -45 -3 -5 -24 -15 -45 -23 -22 -7 -39 -19 -38
-25 4 -14 -35 -34 -53 -27 -8 3 -22 -3 -31 -14 -9 -10 -20 -17 -24 -14 -9 5
-272 -122 -316 -154 -17 -12 -33 -19 -36 -16 -3 3 -24 -4 -47 -16 -122 -62
-252 -76 -362 -39 -34 11 -130 65 -219 122 -88 56 -195 125 -238 152 -85 53
-123 84 -56 45 22 -13 65 -37 95 -55 30 -17 120 -74 200 -125 167 -108 218
-130 315 -137 129 -10 60 -40 1310 571 198 97 376 186 395 199 42 27 80 81 81
116 0 14 3 20 6 13 3 -7 2 -29 -2 -48z m-117 24 c-8 -12 -23 -23 -33 -24 -11
-2 -21 -7 -23 -12 -1 -5 -20 -7 -40 -5 -63 9 -59 21 8 25 25 2 47 5 50 8 6 6
43 29 49 29 2 1 -3 -9 -11 -21z m-2223 -8 c-3 -5 -11 -10 -16 -10 -6 0 -7 5
-4 10 3 6 11 10 16 10 6 0 7 -4 4 -10z m2062 -17 c2 -6 -4 -13 -14 -16 -10 -2
-27 -8 -38 -12 -16 -5 -17 -5 -5 4 13 9 13 11 1 11 -11 0 -10 4 4 14 21 15 47
15 52 -1z m-2633 -25 c-5 -8 12 -12 31 -8 26 6 56 8 51 2 -8 -7 -29 -12 -68
-15 -15 -1 -30 -6 -34 -10 -18 -18 -23 -5 -5 14 11 12 17 29 14 38 -4 13 -3
14 5 1 6 -8 8 -18 6 -22z m576 2 c0 -5 -12 -5 -27 -1 -20 5 -37 2 -58 -11 -37
-22 -41 -22 -49 -2 -5 13 -3 14 7 6 10 -8 20 -7 42 6 28 17 85 18 85 2z m1077
-6 c-3 -3 -12 -4 -19 -1 -8 3 -5 6 6 6 11 1 17 -2 13 -5z m213 -4 c0 -5 -7
-10 -16 -10 -8 0 -12 5 -9 10 3 6 10 10 16 10 5 0 9 -4 9 -10z m815 0 c-3 -5
-11 -10 -16 -10 -6 0 -7 5 -4 10 3 6 11 10 16 10 6 0 7 -4 4 -10z m85 5 c0 -6
-590 -295 -599 -294 -5 1 587 297 597 299 1 0 2 -2 2 -5z m-155 -14 c-3 -5 -1
-12 5 -16 5 -3 10 -1 10 5 0 6 5 8 10 5 15 -9 2 -25 -21 -25 -10 0 -19 -4 -19
-8 0 -5 -12 -14 -27 -21 l-28 -12 25 21 c28 22 21 26 -13 9 -18 -9 -20 -9 -10
1 7 7 23 14 35 15 13 1 24 7 24 13 2 19 4 22 10 22 3 0 3 -4 -1 -9z m-2600
-31 c-3 -5 2 -10 11 -10 10 0 15 -3 11 -6 -3 -3 -15 -3 -28 1 -17 6 -19 9 -8
16 18 11 22 11 14 -1z m103 -4 c-10 -7 -15 -16 -11 -19 3 -4 0 -7 -9 -7 -28 0
-28 14 -1 26 37 16 42 16 21 0z m312 -6 c-8 -6 -11 -10 -6 -10 5 0 -3 -9 -17
-20 -29 -23 -43 -25 -53 -8 -5 8 -1 9 12 5 17 -6 17 -6 2 6 -15 12 -15 14 5
27 20 12 21 11 9 -2 -10 -13 -10 -17 3 -22 8 -3 15 0 15 6 0 12 33 39 40 32 2
-3 -2 -9 -10 -14z m-90 0 c-8 -5 -19 -10 -25 -10 -5 0 -3 5 5 10 8 5 20 10 25
10 6 0 3 -5 -5 -10z m-179 -13 c-6 -8 -8 -16 -5 -20 3 -3 -4 -3 -16 0 l-21 6
23 12 c31 17 32 17 19 2z m1724 3 c3 -5 1 -10 -4 -10 -6 0 -11 5 -11 10 0 6 2
10 4 10 3 0 8 -4 11 -10z m-515 -5 c0 -7 -30 -13 -34 -7 -3 4 4 9 15 9 10 1
19 0 19 -2z m640 -7 c0 -4 -7 -8 -15 -8 -8 0 -15 4 -15 8 0 5 7 9 15 9 8 0 15
-4 15 -9z m-1680 -12 c0 -2 -7 -7 -16 -10 -8 -3 -12 -2 -9 4 6 10 25 14 25 6z
m2126 -10 c3 -9 13 -12 22 -9 10 3 7 -2 -6 -12 -22 -16 -25 -16 -40 -1 -16 16
-16 17 1 10 19 -7 24 11 5 19 -10 4 -10 6 0 6 7 1 15 -5 18 -13z m-426 0 c0
-9 -30 -14 -35 -6 -4 6 3 10 14 10 12 0 21 -2 21 -4z m40 -11 c4 3 13 -2 20
-10 15 -18 10 -18 -25 -5 -17 6 -23 14 -19 22 6 9 9 9 12 0 2 -7 7 -10 12 -7z
m-1923 -10 c0 -17 -13 -20 -21 -6 -4 5 0 12 6 14 7 3 13 6 14 6 0 1 1 -6 1
-14z m53 -5 c18 -12 2 -12 -25 0 -13 6 -15 9 -5 9 8 0 22 -4 30 -9z m2146 3
c-10 -11 -37 -12 -30 -2 3 5 12 9 21 9 9 0 13 -3 9 -7z m75 -10 c8 -10 9 -14
2 -10 -6 4 -14 3 -18 -3 -6 -10 -90 -51 -115 -56 -8 -2 -21 3 -30 10 -8 7 -22
16 -30 19 -11 4 -9 6 5 6 17 1 18 3 5 12 -11 8 -9 9 10 4 14 -4 29 -11 34 -16
5 -4 -2 -5 -15 -2 -20 6 -21 4 -9 -9 15 -16 48 -17 58 -1 4 5 20 13 37 17 36
9 57 25 49 37 -9 16 3 10 17 -8z m-2036 -3 c-11 -19 6 -50 41 -74 33 -22 34
-24 12 -29 -12 -4 -24 -4 -27 -2 -2 3 1 5 7 5 22 0 12 18 -13 24 -14 4 -30 17
-35 31 -10 27 -4 55 12 55 5 0 6 -5 3 -10z m1705 -10 c8 -5 11 -10 5 -10 -5 0
-17 5 -25 10 -8 5 -10 10 -5 10 6 0 17 -5 25 -10z m70 -6 c0 -2 -7 -4 -15 -4
-8 0 -15 4 -15 10 0 5 7 7 15 4 8 -4 15 -8 15 -10z m-1980 -14 c0 -5 -2 -10
-4 -10 -3 0 -8 5 -11 10 -3 6 -1 10 4 10 6 0 11 -4 11 -10z m1927 -6 c-3 -3
-12 -4 -19 -1 -8 3 -5 6 6 6 11 1 17 -2 13 -5z m-44 -19 c-3 -9 -8 -14 -10
-11 -3 3 -2 9 2 15 9 16 15 13 8 -4z m-1822 -12 c13 -16 12 -17 -3 -4 -17 13
-22 21 -14 21 2 0 10 -8 17 -17z m59 8 c0 -4 -4 -12 -8 -19 -7 -10 -12 -8 -25
6 -16 17 -15 18 8 18 14 0 25 -2 25 -5z m2325 -11 c-3 -5 -12 -10 -18 -10 -7
0 -6 4 3 10 19 12 23 12 15 0z m-2242 -40 c3 -11 2 -20 -3 -20 -12 0 -31 26
-23 33 11 12 21 7 26 -13z m1674 -14 c-5 -12 1 -14 29 -10 20 2 33 0 30 -5 -4
-5 -3 -11 1 -14 5 -2 3 -3 -4 -1 -6 1 -14 0 -17 -4 -13 -12 -37 -10 -43 4 -3
8 -11 14 -19 14 -15 0 -19 12 -7 23 12 13 35 7 30 -7z m-1632 -6 c5 -8 11 -8
20 0 9 8 15 8 20 0 3 -5 -1 -10 -10 -10 -9 0 -14 -4 -10 -9 3 -6 -4 -8 -16 -6
-13 3 -28 0 -35 -6 -10 -8 -10 -5 -1 15 13 28 22 32 32 16z m1552 -5 c0 -8 -4
-12 -9 -9 -5 3 -6 10 -3 15 9 13 12 11 12 -6z m-1477 -5 c0 -5 -4 -10 -10 -10
-5 0 -10 5 -10 10 0 6 5 10 10 10 6 0 10 -4 10 -10z m58 -17 c9 -1 18 -7 20
-13 2 -5 9 -7 15 -4 7 4 4 -1 -5 -11 -13 -14 -20 -16 -31 -7 -8 7 -17 9 -21 5
-4 -4 -4 0 -1 9 4 9 0 18 -9 21 -9 4 -16 12 -16 18 0 8 5 7 16 -2 9 -7 23 -14
32 -16z m1462 7 c11 -7 11 -10 2 -10 -7 0 -10 -5 -6 -12 5 -7 3 -8 -6 -3 -7 4
-16 2 -21 -6 -7 -12 -9 -11 -9 1 0 13 -1 13 -10 0 -8 -13 -10 -12 -10 3 0 12
8 17 28 17 21 0 24 2 12 10 -8 5 -10 10 -5 10 6 0 17 -5 25 -10z m130 -20 c-8
-5 -19 -10 -25 -10 -5 0 -3 5 5 10 8 5 20 10 25 10 6 0 3 -5 -5 -10z m-1643
-14 c-4 -9 3 -16 19 -20 27 -7 31 -23 12 -49 -10 -13 -17 -14 -28 -6 -13 9
-12 10 3 5 9 -3 17 -1 17 4 0 6 -4 10 -10 10 -5 0 -10 5 -10 11 0 5 5 7 12 3
7 -4 8 -3 4 5 -4 6 -12 9 -17 5 -5 -3 -17 0 -25 7 -14 12 -14 14 2 26 23 17
27 16 21 -1z m327 -2 c5 -14 4 -15 -9 -4 -17 14 -19 20 -6 20 5 0 12 -7 15
-16z m1202 -10 c-11 -8 -27 -14 -35 -13 -9 0 -4 5 12 11 15 5 27 15 27 21 0 5
3 7 7 3 5 -4 -1 -14 -11 -22z m-102 7 c3 -5 -1 -11 -9 -14 -9 -4 -12 -1 -8 9
6 16 10 17 17 5z m176 4 c0 -6 -342 -177 -346 -172 -3 2 332 175 344 177 1 0
2 -2 2 -5z m-1300 -15 c0 -5 -5 -10 -11 -10 -5 0 -7 5 -4 10 3 6 8 10 11 10 2
0 4 -4 4 -10z m60 -11 c0 -5 -4 -7 -10 -4 -5 3 -10 1 -10 -6 0 -7 -3 -10 -6
-6 -8 7 4 27 17 27 5 0 9 -5 9 -11z m1107 -4 c0 -8 -4 -12 -9 -9 -5 3 -6 10
-3 15 9 13 12 11 12 -6z m-1666 -22 c13 -16 12 -17 -3 -4 -17 13 -22 21 -14
21 2 0 10 -8 17 -17z m1510 0 c13 -16 12 -17 -3 -4 -10 7 -18 15 -18 17 0 8 8
3 21 -13z m94 7 c-3 -5 -1 -10 6 -10 7 0 10 -2 7 -5 -3 -3 -13 -2 -22 1 -14 5
-15 9 -4 15 17 11 20 11 13 -1z m-1530 -55 l20 -16 -20 10 c-11 5 -29 17 -40
26 l-20 16 20 -10 c11 -5 29 -17 40 -26z m275 25 c0 -5 -7 -10 -15 -10 -8 0
-15 5 -15 10 0 6 7 10 15 10 8 0 15 -4 15 -10z m130 -21 c0 -5 5 -7 12 -3 7 5
8 3 3 -6 -4 -7 -2 -16 5 -20 9 -5 9 -9 1 -14 -6 -4 -11 -2 -11 4 0 7 -7 10
-15 7 -8 -4 -17 -2 -20 3 -4 6 1 10 11 10 13 0 14 3 4 15 -9 10 -9 15 -1 15 6
0 11 -5 11 -11z m-164 -13 c17 -18 2 -30 -26 -21 -11 4 -17 12 -13 21 7 18 20
18 39 0z m1038 5 c3 -5 -1 -11 -9 -14 -9 -4 -12 -1 -8 9 6 16 10 17 17 5z
m116 -22 c0 -5 -4 -9 -8 -9 -5 0 -9 7 -9 15 0 8 4 12 9 9 4 -3 8 -9 8 -15z
m422 -1 c-7 -7 -12 -8 -12 -2 0 14 12 26 19 19 2 -3 -1 -11 -7 -17z m-1417
-37 c-3 -6 -11 -8 -17 -5 -6 4 -5 9 3 15 16 10 23 4 14 -10z m35 -5 c0 -3 -4
-8 -10 -11 -5 -3 -10 -1 -10 4 0 6 5 11 10 11 6 0 10 -2 10 -4z m781 -86 c-85
-44 -156 -78 -158 -76 -5 4 289 155 302 155 6 0 -60 -35 -144 -79z m-792 54
c3 -3 -3 -4 -15 -2 -11 1 -28 -3 -38 -11 -14 -12 -16 -12 -9 4 5 15 3 17 -11
12 -10 -4 -15 -3 -11 3 6 9 74 4 84 -6z m803 9 c-6 -2 -10 -9 -7 -14 4 -5 -1
-6 -10 -2 -13 5 -14 7 -3 14 7 5 18 8 23 8 6 0 4 -3 -3 -6z m-708 -14 c-2 -4
1 -9 8 -12 7 -2 3 -3 -9 -1 -24 4 -26 -14 -4 -40 18 -22 28 -11 10 11 -12 16
-11 15 8 -1 17 -14 20 -23 13 -37 -14 -26 -30 -33 -43 -19 -7 6 -7 11 -2 10
20 -4 38 0 31 7 -9 9 -35 15 -65 15 -18 0 -20 2 -10 9 8 5 23 6 34 2 17 -5 18
-4 7 10 -8 9 -19 14 -26 11 -7 -3 -18 1 -24 8 -8 10 -4 13 16 15 15 0 28 5 29
10 2 6 10 10 18 10 8 0 12 -4 9 -8z m551 1 c-3 -5 -12 -10 -18 -10 -7 0 -6 4
3 10 19 12 23 12 15 0z m-675 -20 c0 -5 -5 -10 -11 -10 -5 0 -7 5 -4 10 3 6 8
10 11 10 2 0 4 -4 4 -10z m760 0 c0 -5 -2 -10 -4 -10 -3 0 -8 5 -11 10 -3 6
-1 10 4 10 6 0 11 -4 11 -10z m427 -12 c-3 -8 -6 -5 -6 6 -1 11 2 17 5 13 3
-3 4 -12 1 -19z m-1017 2 c0 -5 -5 -10 -11 -10 -5 0 -7 5 -4 10 3 6 8 10 11
10 2 0 4 -4 4 -10z m-125 -10 c8 -13 -5 -13 -25 0 -13 8 -13 10 2 10 9 0 20
-4 23 -10z m530 -23 c-11 -6 -21 -5 -28 3 -9 8 -7 9 7 4 13 -5 17 -4 12 4 -5
8 -2 10 10 5 15 -6 15 -7 -1 -16z m-472 -61 c42 -27 75 -51 73 -54 -4 -4 -152
92 -171 111 -14 13 5 2 98 -57z m172 33 c11 -16 1 -19 -13 -3 -7 8 -8 14 -3
14 5 0 13 -5 16 -11z m395 -3 c-4 -4 -16 -4 -26 2 -16 9 -14 10 8 9 15 -1 23
-6 18 -11z m-500 -11 c-7 -8 -17 -15 -22 -15 -6 0 -5 7 2 15 7 8 17 15 22 15
6 0 5 -7 -2 -15z m45 -13 c-3 -3 -11 0 -18 7 -9 10 -8 11 6 5 10 -3 15 -9 12
-12z m50 -23 c4 -6 0 -9 -11 -7 -12 2 -18 -2 -16 -11 3 -12 0 -12 -12 -1 -17
14 -22 25 -7 15 5 -3 12 -1 16 5 8 13 22 13 30 -1z m325 -24 c-25 -13 -49 -24
-55 -24 -5 0 10 11 35 24 25 13 50 24 55 24 6 0 -10 -11 -35 -24z m-335 -35
c33 -12 46 -18 29 -16 -29 5 -106 33 -94 35 3 0 32 -8 65 -19z m235 -7 c-19
-9 -66 -17 -105 -19 l-70 -3 70 9 c39 4 81 13 95 18 40 17 49 12 10 -5z"/>
<path d="M3313 4153 c9 -2 23 -2 30 0 6 3 -1 5 -18 5 -16 0 -22 -2 -12 -5z"/>
<path d="M3378 4143 c6 -2 18 -2 25 0 6 3 1 5 -13 5 -14 0 -19 -2 -12 -5z"/>
<path d="M1135 4030 c-4 -6 -10 -8 -15 -5 -4 3 -11 -2 -14 -10 -4 -13 -2 -13
14 -5 18 10 36 30 26 30 -3 0 -8 -5 -11 -10z"/>
<path d="M1456 3853 c-6 -14 -5 -15 5 -6 7 7 10 15 7 18 -3 3 -9 -2 -12 -12z"/>
<path d="M1240 3830 c0 -5 14 -10 32 -10 36 0 35 4 -4 14 -17 4 -28 2 -28 -4z"/>
<path d="M1414 3814 c-18 -14 -18 -15 4 -4 12 6 22 13 22 15 0 8 -5 6 -26 -11z"/>
<path d="M1198 3813 c7 -3 16 -2 19 1 4 3 -2 6 -13 5 -11 0 -14 -3 -6 -6z"/>
<path d="M1375 3790 c-4 -6 -10 -8 -15 -5 -4 3 -10 -2 -14 -10 -8 -21 8 -19
29 5 10 11 15 20 12 20 -3 0 -9 -5 -12 -10z"/>
<path d="M1115 3750 c-3 -6 -3 -10 2 -9 4 1 16 -1 26 -6 11 -4 23 -3 30 4 8 8
7 11 -5 11 -9 0 -23 3 -31 6 -8 3 -18 0 -22 -6z"/>
<path d="M1310 3749 c0 -5 5 -7 10 -4 6 3 10 8 10 11 0 2 -4 4 -10 4 -5 0 -10
-5 -10 -11z"/>
<path d="M1278 3743 c7 -3 16 -2 19 1 4 3 -2 6 -13 5 -11 0 -14 -3 -6 -6z"/>
<path d="M880 3620 c-12 -8 -10 -9 7 -7 12 2 26 6 29 10 11 11 -19 8 -36 -3z"/>
<path d="M4176 3523 c-3 -4 6 -14 22 -23 39 -23 61 -30 66 -21 6 9 -80 52 -88
44z"/>
<path d="M2451 3230 c-121 -41 -137 -50 -128 -74 12 -30 232 -126 288 -126 29
0 31 2 19 13 -8 8 -64 33 -123 57 -60 24 -111 48 -114 53 -9 15 10 26 99 57
l85 30 59 -20 c74 -26 111 -32 118 -21 5 8 -155 72 -178 70 -6 0 -62 -18 -125
-39z"/>
<path d="M2544 3202 l-29 -15 32 -15 c28 -13 36 -13 68 0 l36 14 -39 16 c-35
14 -42 14 -68 0z"/>
<path d="M2050 2900 c0 -40 4 -70 10 -70 6 0 10 11 10 24 0 13 6 26 13 29 10
4 10 7 0 18 -19 20 -16 39 7 39 40 0 8 29 -32 30 -5 0 -8 -31 -8 -70z"/>
<path d="M2126 2898 c-4 -24 -10 -54 -13 -67 -5 -20 -3 -22 16 -16 16 5 27 1
37 -12 13 -16 14 -13 8 32 -15 107 -37 136 -48 63z m24 -43 c0 -8 -4 -15 -10
-15 -5 0 -10 7 -10 15 0 8 5 15 10 15 6 0 10 -7 10 -15z"/>
<path d="M2196 2894 c-6 -16 7 -47 31 -76 8 -9 12 -22 8 -29 -6 -8 -12 -4 -21
12 -13 23 -13 23 -14 3 0 -25 24 -49 40 -39 16 10 12 41 -11 80 -23 38 -18 61
6 29 11 -15 14 -16 15 -3 0 33 -43 52 -54 23z"/>
<path d="M2270 2876 c0 -8 7 -16 15 -20 11 -4 15 -21 15 -61 0 -30 5 -55 10
-55 6 0 10 25 10 56 0 38 3 53 11 48 7 -4 10 -1 7 7 -2 7 -19 19 -36 26 -27
11 -32 11 -32 -1z"/>
<path d="M1930 2756 c0 -66 2 -74 21 -79 20 -5 39 17 25 30 -3 4 -6 -2 -6 -12
0 -27 -18 -5 -21 25 -4 47 1 90 11 90 6 0 11 -10 11 -22 1 -18 2 -19 6 -5 5
21 -13 47 -33 47 -11 0 -14 -18 -14 -74z"/>
<path d="M2011 2763 c2 -31 3 -33 6 -10 4 22 8 27 24 22 23 -8 26 10 3 19 -29
11 -34 6 -33 -31z"/>
<path d="M2081 2700 c1 -38 6 -70 11 -70 4 0 8 32 8 70 0 42 -4 70 -11 70 -6
0 -9 -26 -8 -70z"/>
<path d="M2163 2665 c0 -44 2 -61 4 -37 2 23 2 59 0 80 -2 20 -4 1 -4 -43z"/>
<path d="M2195 2660 c4 -41 13 -81 21 -89 16 -17 17 -15 33 67 13 64 13 72 2
72 -5 0 -12 -20 -15 -45 -9 -57 -26 -59 -26 -2 0 23 -5 49 -11 57 -7 11 -8 -7
-4 -60z"/>
<path d="M2011 2689 c0 -15 6 -32 14 -39 10 -9 15 -9 15 -1 0 6 -4 11 -9 11
-5 0 -12 12 -14 28 l-4 27 -2 -26z"/>
<path d="M2280 2619 c0 -77 1 -79 30 -94 26 -13 30 -14 30 -1 0 8 -9 18 -20
21 -23 7 -27 45 -5 45 8 0 15 4 15 9 0 5 -7 11 -15 15 -8 3 -15 15 -15 27 0
16 5 20 20 16 32 -8 23 17 -10 30 l-30 11 0 -79z"/>
<path d="M2360 2580 c0 -47 4 -80 10 -80 6 0 10 14 10 30 0 44 16 37 27 -12
l11 -43 3 55 c4 83 2 101 -18 116 -37 28 -43 18 -43 -66z m40 35 c0 -8 0 -18
1 -22 0 -4 -4 -9 -10 -11 -6 -2 -11 8 -11 22 0 14 5 26 10 26 6 0 10 -7 10
-15z"/>
<path d="M1962 2504 c2 -74 7 -124 13 -124 6 1 9 21 7 45 -2 43 -1 45 24 45
20 0 25 4 20 16 -3 9 -6 18 -6 20 0 2 -7 4 -15 4 -13 0 -17 17 -14 58 0 4 11
6 25 5 38 -3 28 22 -16 40 l-41 16 3 -125z"/>
<path d="M2456 2583 c8 -26 16 -66 17 -87 3 -51 27 -62 27 -12 0 20 7 53 15
73 8 20 13 38 11 41 -8 7 -26 -9 -26 -24 0 -26 -17 -15 -26 18 -5 17 -14 33
-21 35 -8 3 -7 -10 3 -44z"/>
<path d="M2067 2573 c-4 -3 -7 -57 -7 -118 0 -104 2 -113 23 -133 57 -53 81
-15 75 115 -5 80 -9 97 -28 118 -23 24 -50 32 -63 18z m51 -137 c2 -76 0 -97
-10 -94 -9 3 -14 34 -16 102 -2 76 0 97 10 94 9 -3 14 -34 16 -102z"/>
<path d="M2184 2495 c-3 -13 -4 -67 -2 -119 3 -106 20 -139 67 -134 26 3 26 3
29 114 2 100 1 113 -18 137 -28 35 -67 36 -76 2z m60 -31 c3 -9 6 -54 6 -100
0 -65 -3 -84 -14 -84 -21 0 -26 23 -26 116 0 65 3 84 14 84 8 0 17 -7 20 -16z"/>
<path d="M2316 2473 c-8 -8 -6 -150 2 -222 7 -52 9 -55 42 -64 28 -7 36 -5 47
9 17 23 17 183 1 219 -12 27 -80 70 -92 58z m72 -162 c-3 -72 -6 -86 -20 -89
-16 -3 -18 7 -18 104 l0 107 20 -18 c18 -17 20 -29 18 -104z"/>
<path d="M4115 3270 c-3 -5 -2 -10 4 -10 5 0 13 5 16 10 3 6 2 10 -4 10 -5 0
-13 -4 -16 -10z"/>
<path d="M4490 2959 c0 -5 5 -7 10 -4 6 3 10 8 10 11 0 2 -4 4 -10 4 -5 0 -10
-5 -10 -11z"/>
<path d="M3536 2933 c-6 -14 -5 -15 5 -6 7 7 10 15 7 18 -3 3 -9 -2 -12 -12z"/>
<path d="M991 2839 c-52 -4 -110 -14 -130 -20 l-36 -12 30 -10 c51 -15 243
-11 324 7 41 9 77 19 80 21 21 22 -114 29 -268 14z"/>
<path d="M858 2763 c12 -2 30 -2 40 0 9 3 -1 5 -23 4 -22 0 -30 -2 -17 -4z"/>
<path d="M3310 2640 c12 -8 12 -10 1 -10 -8 0 -12 -2 -9 -5 3 -3 13 -2 22 1
14 5 15 9 4 15 -7 5 -17 9 -23 9 -5 0 -3 -5 5 -10z"/>
<path d="M3255 2630 c-13 -6 -15 -9 -5 -9 8 0 22 4 30 9 18 12 2 12 -25 0z"/>
<path d="M3354 2622 c3 -6 -2 -13 -11 -15 -14 -4 -13 -5 5 -6 23 -1 30 13 10
25 -6 4 -8 3 -4 -4z"/>
<path d="M3176 2601 c-4 -5 2 -7 13 -4 10 3 33 -3 51 -12 17 -9 34 -14 37 -11
6 6 -63 36 -83 36 -7 0 -15 -4 -18 -9z"/>
<path d="M3273 2603 c9 -2 23 -2 30 0 6 3 -1 5 -18 5 -16 0 -22 -2 -12 -5z"/>
<path d="M3413 2586 c13 -10 15 -15 5 -19 -7 -2 -1 -4 14 -3 16 0 28 2 28 3 0
1 -15 10 -32 18 -26 12 -29 13 -15 1z"/>
<path d="M3204 2576 c11 -9 27 -16 35 -15 14 0 14 1 1 6 -8 3 -24 10 -35 15
-20 9 -20 9 -1 -6z"/>
<path d="M3350 2570 c-21 -7 -22 -8 -5 -9 15 -1 17 -3 7 -10 -11 -7 -10 -9 3
-14 10 -4 14 -3 10 4 -4 6 0 9 10 7 10 -2 20 3 22 10 3 8 -1 10 -13 5 -12 -4
-15 -3 -10 5 4 7 6 12 4 11 -2 -1 -14 -5 -28 -9z"/>
<path d="M3645 2544 c-60 -20 -185 -60 -276 -90 -92 -30 -180 -54 -197 -54
-17 0 -66 16 -109 36 -135 62 -236 105 -240 101 -8 -9 324 -150 352 -149 26 0
592 177 604 188 11 10 -34 0 -134 -32z"/>
<path d="M3276 2551 c-3 -4 6 -6 19 -3 14 2 25 6 25 8 0 8 -39 4 -44 -5z"/>
<path d="M3300 2530 c8 -5 22 -10 30 -10 13 0 13 1 0 10 -8 5 -22 10 -30 10
-13 0 -13 -1 0 -10z"/>
<path d="M1485 2710 c-3 -5 1 -10 9 -10 8 0 18 5 21 10 3 6 -1 10 -9 10 -8 0
-18 -4 -21 -10z"/>
<path d="M1537 2670 c-3 -11 -1 -20 4 -20 5 0 9 9 9 20 0 11 -2 20 -4 20 -2 0
-6 -9 -9 -20z"/>
<path d="M1451 2574 c0 -11 3 -14 6 -6 3 7 2 16 -1 19 -3 4 -6 -2 -5 -13z"/>
<path d="M1458 2533 c7 -3 16 -2 19 1 4 3 -2 6 -13 5 -11 0 -14 -3 -6 -6z"/>
<path d="M1383 2490 c0 -25 2 -35 4 -22 2 12 2 32 0 45 -2 12 -4 2 -4 -23z"/>
<path d="M1420 2480 c0 -22 5 -40 10 -40 6 0 10 18 10 40 0 22 -4 40 -10 40
-5 0 -10 -18 -10 -40z"/>
<path d="M1460 2471 c0 -22 5 -43 10 -46 6 -4 10 12 10 39 0 25 -4 46 -10 46
-5 0 -10 -18 -10 -39z"/>
<path d="M3830 2030 c0 -5 5 -10 10 -10 6 0 10 5 10 10 0 6 -4 10 -10 10 -5 0
-10 -4 -10 -10z"/>
<path d="M3784 2019 c-3 -6 -1 -16 6 -22 10 -9 12 -8 6 7 -5 14 -2 17 9 12 8
-3 15 -1 15 4 0 14 -27 13 -36 -1z"/>
<path d="M3546 1989 c-27 -9 -42 -19 -35 -21 8 -3 21 -2 29 2 8 4 32 10 54 14
21 4 35 10 32 14 -11 10 -29 9 -80 -9z"/>
<path d="M3691 1984 c0 -11 3 -14 6 -6 3 7 2 16 -1 19 -3 4 -6 -2 -5 -13z"/>
<path d="M3672 1970 c0 -14 2 -19 5 -12 2 6 2 18 0 25 -3 6 -5 1 -5 -13z"/>
<path d="M3584 1935 c-8 -30 1 -44 18 -27 9 9 9 12 0 12 -7 0 -12 5 -12 11 0
6 7 9 14 6 10 -4 13 -1 9 9 -8 22 -22 17 -29 -11z"/>
<path d="M3630 1924 c0 -8 5 -12 10 -9 6 4 8 11 5 16 -9 14 -15 11 -15 -7z"/>
<path d="M3490 1900 c0 -16 2 -30 4 -30 2 0 6 14 8 30 3 17 1 30 -4 30 -4 0
-8 -13 -8 -30z"/>
<path d="M3454 1908 c-4 -6 -2 -14 4 -16 7 -2 12 -8 12 -13 0 -6 -4 -7 -10 -4
-5 3 -10 1 -10 -4 0 -6 7 -11 15 -11 17 0 20 25 5 35 -6 4 -8 11 -5 16 4 5 4
9 1 9 -3 0 -8 -5 -12 -12z"/>
<path d="M3421 1854 c0 -11 3 -14 6 -6 3 7 2 16 -1 19 -3 4 -6 -2 -5 -13z"/>
<path d="M1897 2064 c6 -15 23 -19 23 -5 0 5 -7 11 -14 14 -10 4 -13 1 -9 -9z"/>
<path d="M1778 1653 c-9 -2 -19 -10 -22 -18 -4 -11 2 -11 32 2 20 8 39 17 41
19 5 5 -28 3 -51 -3z"/>
<path d="M1609 1603 c-13 -16 -12 -17 4 -4 9 7 17 15 17 17 0 8 -8 3 -21 -13z"/>
<path d="M1981 1617 c2 -2 18 -11 34 -22 l30 -18 -19 21 c-11 12 -26 22 -34
22 -9 0 -13 -1 -11 -3z"/>
<path d="M1320 1599 c0 -5 5 -7 10 -4 6 3 10 8 10 11 0 2 -4 4 -10 4 -5 0 -10
-5 -10 -11z"/>
<path d="M1943 1591 c-12 -11 -23 -17 -27 -14 -3 3 -12 1 -19 -5 -8 -7 -18 -8
-22 -4 -5 4 -5 1 0 -7 5 -9 3 -12 -6 -9 -8 3 -18 -1 -24 -9 -7 -10 -18 -11
-41 -4 -37 10 -43 -9 -11 -36 13 -11 17 -12 12 -4 -6 11 -4 13 9 8 9 -4 15 -3
12 1 -3 5 8 9 25 9 16 0 35 5 42 12 9 10 8 11 -8 5 -17 -7 -18 -6 -7 8 7 8 24
14 38 12 15 -1 36 2 48 7 21 9 21 9 -2 5 -13 -2 -20 0 -16 6 4 5 17 8 31 5 23
-4 23 -3 7 14 -21 23 -16 23 -41 0z"/>
<path d="M1335 1580 c-3 -5 -1 -10 4 -10 6 0 11 5 11 10 0 6 -2 10 -4 10 -3 0
-8 -4 -11 -10z"/>
<path d="M1572 1577 c15 -12 15 -14 0 -25 -10 -7 -5 -7 13 1 17 8 43 17 59 21
15 4 26 9 24 11 -2 3 -20 0 -38 -5 -22 -6 -38 -6 -44 0 -6 6 -15 10 -20 10 -6
0 -3 -6 6 -13z"/>
<path d="M1373 1572 c-9 -6 -7 -11 7 -19 14 -10 19 -9 24 2 3 10 0 12 -11 8
-11 -4 -14 -2 -9 5 8 14 6 15 -11 4z"/>
<path d="M1825 1550 c3 -5 8 -10 11 -10 2 0 4 5 4 10 0 6 -5 10 -11 10 -5 0
-7 -4 -4 -10z"/>
<path d="M1470 1540 c-13 -8 -12 -10 3 -10 9 0 17 5 17 10 0 12 -1 12 -20 0z"/>
<path d="M1413 1519 c-2 -23 3 -25 10 -4 4 8 3 16 -1 19 -4 3 -9 -4 -9 -15z"/>
<path d="M1500 1520 c-8 -5 -10 -10 -5 -10 6 0 17 5 25 10 8 5 11 10 5 10 -5
0 -17 -5 -25 -10z"/>
<path d="M1434 1495 c-10 -8 -14 -14 -9 -15 15 0 40 18 34 24 -3 3 -14 -1 -25
-9z"/>
<path d="M1742 1503 c-10 -4 -10 -8 -1 -19 16 -19 0 -18 -23 3 -10 9 -18 12
-18 6 0 -14 46 -36 60 -28 8 5 8 10 -1 21 -14 17 2 19 21 2 12 -11 12 -10 1 5
-14 18 -18 19 -39 10z"/>
<path d="M1656 1474 c-9 -22 1 -34 29 -34 34 0 39 15 10 34 -30 20 -31 20 -39
0z m39 -14 c3 -5 -1 -10 -9 -10 -8 0 -18 5 -21 10 -3 6 1 10 9 10 8 0 18 -4
21 -10z"/>
<path d="M1306 1455 c18 -14 18 -14 -3 -9 -12 3 -30 1 -40 -6 -16 -10 -16 -11
0 -6 9 3 17 1 17 -4 0 -6 -11 -10 -25 -10 -14 0 -25 -4 -25 -9 0 -10 38 -1 82
19 25 12 26 14 10 26 -9 7 -21 14 -26 14 -6 0 -1 -7 10 -15z"/>
<path d="M1576 1431 c-10 -11 -15 -26 -11 -33 3 -7 -2 -3 -14 10 -11 12 -22
18 -25 14 -9 -15 29 -43 48 -36 13 5 14 9 5 20 -8 9 -8 14 -1 14 6 0 14 -4 17
-10 3 -5 11 -10 17 -10 6 0 6 6 -2 15 -16 19 -5 34 12 17 17 -17 33 -15 18 3
-17 21 -43 19 -64 -4z"/>
<path d="M2505 1430 c3 -5 8 -10 11 -10 2 0 4 5 4 10 0 6 -5 10 -11 10 -5 0
-7 -4 -4 -10z"/>
<path d="M1497 1394 c5 -13 3 -15 -8 -9 -11 6 -12 5 -2 -5 10 -11 9 -16 -5
-27 -15 -12 -14 -12 8 -1 14 7 29 12 34 13 5 0 11 6 14 14 3 10 0 12 -12 8 -9
-4 -15 -2 -13 5 1 6 -4 13 -11 15 -8 3 -10 -1 -5 -13z"/>
<path d="M1425 1379 c-4 -6 -4 -13 -1 -16 3 -4 6 -1 6 6 0 8 8 11 20 8 11 -3
18 -1 14 4 -7 12 -31 11 -39 -2z"/>
<path d="M1305 1340 c3 -5 11 -10 16 -10 6 0 7 5 4 10 -3 6 -11 10 -16 10 -6
0 -7 -4 -4 -10z"/>
<path d="M1560 1265 c0 -2 9 -9 19 -15 14 -7 27 -6 48 5 15 8 22 15 15 15 -7
0 -22 -5 -32 -10 -13 -7 -21 -7 -25 0 -6 10 -25 14 -25 5z"/>
<path d="M2055 1100 c-3 -6 1 -7 9 -4 18 7 21 14 7 14 -6 0 -13 -4 -16 -10z"/>
<path d="M2787 1683 c-22 -25 -30 -64 -18 -93 9 -23 10 -21 10 16 1 23 7 47
15 53 11 9 13 6 9 -16 -3 -26 -3 -27 6 -5 21 46 71 17 71 -42 0 -31 -2 -31
-38 -9 -21 13 -19 10 7 -14 25 -21 33 -35 28 -48 -6 -14 -15 -16 -44 -12 -36
6 -36 6 -13 -10 17 -12 29 -14 48 -7 51 18 54 116 6 174 -29 34 -63 39 -87 13z"/>
<path d="M2786 1547 c3 -10 9 -15 12 -12 3 3 0 11 -7 18 -10 9 -11 8 -5 -6z"/>
<path d="M3704 1196 c-50 -24 -94 -51 -97 -60 -11 -28 155 -126 213 -126 45 0
100 33 100 60 0 13 7 20 19 20 25 0 66 34 58 48 -11 17 -165 102 -184 101 -10
0 -59 -20 -109 -43z m174 -16 c27 -16 54 -30 61 -30 6 0 11 -4 11 -9 0 -23
-21 -19 -74 13 l-57 34 -64 -26 c-36 -15 -65 -30 -65 -34 0 -10 100 -69 119
-70 9 -1 26 2 39 6 25 8 29 -5 7 -24 -9 -7 -27 -10 -44 -7 -30 6 -161 84 -161
96 0 9 149 81 167 81 7 0 35 -13 61 -30z m-27 -35 c25 -13 28 -19 19 -35 -15
-28 -52 -34 -88 -16 -45 23 -47 34 -10 50 43 19 44 19 79 1z"/>
<path d="M3420 1006 c0 -2 8 -10 18 -17 15 -13 16 -12 3 4 -13 16 -21 21 -21
13z"/>
<path d="M3006 992 c-2 -4 7 -9 22 -10 21 -1 24 0 12 8 -18 12 -27 12 -34 2z"/>
<path d="M2980 959 c-12 -8 -10 -9 8 -4 13 4 22 2 22 -5 0 -6 5 -8 11 -4 8 4
7 9 -2 15 -18 11 -21 11 -39 -2z"/>
<path d="M2934 946 c-19 -14 -19 -14 1 -13 12 1 19 -3 17 -11 -2 -10 2 -10 20
-1 33 17 35 20 7 17 -15 -2 -23 2 -21 10 3 15 0 15 -24 -2z"/>
<path d="M2895 920 c-3 -5 -1 -10 4 -10 6 0 11 5 11 10 0 6 -2 10 -4 10 -3 0
-8 -4 -11 -10z"/>
<path d="M2888 897 c-21 -6 -38 -14 -38 -19 0 -11 9 -9 55 12 44 21 39 23 -17
7z"/>
<path d="M3207 902 c-18 -4 -17 -5 2 -18 12 -9 26 -12 31 -9 6 4 17 2 24 -4
17 -15 91 -4 107 15 9 11 5 14 -22 16 -70 4 -125 4 -142 0z"/>
<path d="M2806 854 c-6 -15 -4 -15 11 -3 10 7 20 15 22 16 2 2 -3 3 -11 3 -9
0 -19 -7 -22 -16z"/>
<path d="M3170 836 c0 -2 7 -7 16 -10 8 -3 12 -2 9 4 -6 10 -25 14 -25 6z"/>
<path d="M2625 810 c-16 -7 -17 -9 -3 -9 9 -1 20 4 23 9 7 11 7 11 -20 0z"/>
<path d="M3040 770 c48 -42 110 -72 110 -54 0 8 -4 14 -9 14 -5 0 -33 16 -62
35 -65 43 -87 45 -39 5z"/>
<path d="M2405 720 c-3 -5 1 -10 9 -10 9 0 16 5 16 10 0 6 -4 10 -9 10 -6 0
-13 -4 -16 -10z"/>
<path d="M2436 701 c-3 -5 0 -11 7 -14 8 -3 14 1 14 9 0 16 -13 19 -21 5z"/>
<path d="M1292 1153 c11 -14 47 -13 42 2 -2 5 -15 10 -28 10 -18 0 -22 -3 -14
-12z"/>
<path d="M3606 742 c-3 -5 1 -9 9 -9 8 0 15 4 15 9 0 4 -4 8 -9 8 -6 0 -12 -4
-15 -8z"/>
<path d="M2096 715 c4 -8 11 -15 16 -15 6 0 5 6 -2 15 -7 8 -14 15 -16 15 -2
0 -1 -7 2 -15z"/>
<path d="M2140 590 c0 -5 5 -10 11 -10 5 0 7 5 4 10 -3 6 -8 10 -11 10 -2 0
-4 -4 -4 -10z"/>
<path d="M2606 4621 c-4 -5 -2 -12 3 -15 5 -4 12 -2 15 3 4 5 2 12 -3 15 -5 4
-12 2 -15 -3z"/>
<path d="M3540 4540 c-11 -11 -20 -30 -20 -42 1 -26 22 -58 39 -58 6 0 20 -9
31 -20 11 -11 20 -17 21 -12 1 7 3 19 15 79 5 24 1 36 -15 52 -26 26 -45 27
-71 1z m75 -30 c10 -31 -12 -62 -42 -58 -33 4 -48 27 -39 61 10 42 67 41 81
-3z"/>
<path d="M3288 4473 c7 -3 16 -2 19 1 4 3 -2 6 -13 5 -11 0 -14 -3 -6 -6z"/>
<path d="M3232 4395 l5 -55 -41 -1 c-29 0 -35 -3 -22 -8 11 -4 50 -7 87 -7 57
1 72 5 91 24 12 12 17 22 11 22 -6 0 -16 -7 -23 -15 -17 -20 -64 -19 -85 2
-12 11 -16 28 -13 55 2 21 -1 38 -5 38 -5 0 -7 -25 -5 -55z"/>
<path d="M3363 4408 c1 -15 6 -23 11 -18 4 4 4 16 -2 26 -9 16 -10 14 -9 -8z"/>
<path d="M1221 4381 c-14 -4 -27 -13 -29 -20 -3 -10 1 -11 19 -5 13 5 50 9 82
8 58 0 75 9 35 20 -29 7 -75 6 -107 -3z"/>
<path d="M1453 4316 c5 -16 22 -17 40 -4 15 12 14 13 -13 13 -16 0 -29 -4 -27
-9z"/>
<path d="M3924 4195 c-4 -9 -2 -21 4 -27 15 -15 44 -1 40 19 -4 23 -36 29 -44
8z m36 -5 c0 -5 -4 -10 -10 -10 -5 0 -10 5 -10 10 0 6 5 10 10 10 6 0 10 -4
10 -10z"/>
<path d="M722 4038 c-20 -20 -15 -66 9 -78 16 -9 26 -8 45 5 29 18 31 46 6 68
-22 20 -43 22 -60 5z m51 -22 c3 -8 -1 -22 -8 -33 -13 -17 -15 -17 -31 -1 -9
9 -14 24 -11 32 8 20 43 21 50 2z"/>
<path d="M4254 3837 c-3 -9 -14 -17 -23 -18 -12 0 -10 -3 7 -11 25 -13 29 -45
8 -73 -12 -16 -17 -17 -45 -6 -36 16 -40 42 -11 71 11 11 16 20 10 20 -13 0
-37 -38 -45 -71 -5 -22 -2 -27 17 -33 59 -15 98 9 98 60 0 12 4 24 8 26 4 2 2
14 -4 28 -11 21 -14 22 -20 7z"/>
<path d="M758 3698 c-19 -19 -13 -24 11 -9 7 5 12 13 10 18 -2 5 -12 1 -21 -9z"/>
<path d="M4750 2680 c0 -5 5 -10 10 -10 6 0 10 5 10 10 0 6 -4 10 -10 10 -5 0
-10 -4 -10 -10z"/>
<path d="M419 2349 c-9 -17 -8 -25 4 -37 29 -28 73 12 47 43 -17 21 -37 19
-51 -6z m33 -14 c0 -5 -5 -11 -11 -13 -6 -2 -11 4 -11 13 0 9 5 15 11 13 6 -2
11 -8 11 -13z"/>
</g>
</svg>
